<?xml version="1.0" standalone="no"?>
<!DOCTYPE svg PUBLIC "-//W3C//DTD SVG 20010904//EN"
 "http://www.w3.org/TR/2001/REC-SVG-20010904/DTD/svg10.dtd">
<svg version="1.0" xmlns="http://www.w3.org/2000/svg"
 width="2880.000000pt" height="1800.000000pt" viewBox="0 0 2880.000000 1800.000000"
 preserveAspectRatio="xMidYMid meet">

<g transform="translate(0.000000,1800.000000) scale(0.100000,-0.100000)"
fill="#000000" stroke="none">
<path d="M5240 14673 c-1 -2432 -4 -3323 -12 -3308 -22 40 -64 78 -113 101
l-50 24 -2445 0 c-2438 0 -2445 0 -2490 -21 -80 -36 -130 -98 -130 -161 l1
-33 13 38 c20 54 61 104 109 130 l42 22 2434 3 c1607 1 2446 -1 2471 -8 54
-15 116 -64 142 -112 l23 -43 0 -536 0 -536 -30 -49 c-34 -54 -79 -89 -135
-104 -25 -7 -863 -9 -2472 -8 l-2435 3 -48 30 c-55 34 -80 64 -100 121 l-14
39 -1 -33 c0 -63 50 -125 130 -161 45 -21 52 -21 2490 -21 l2445 0 50 24 c49
23 91 61 113 101 8 15 11 -176 11 -725 0 -546 -3 -740 -11 -725 -23 43 -105
118 -153 141 l-50 24 -2425 0 c-2418 0 -2425 0 -2470 -21 -83 -37 -131 -99
-129 -166 l0 -38 15 46 c8 28 30 62 54 87 79 78 -147 72 2525 72 2668 0 2457
6 2533 -70 74 -74 72 -54 72 -785 0 -734 1 -724 -70 -795 -76 -76 134 -70
-2530 -70 -2670 0 -2455 -6 -2531 72 -23 23 -45 60 -53 87 l-15 46 0 -38 c-1
-21 6 -51 14 -66 21 -41 88 -96 134 -109 29 -9 650 -12 2457 -12 l2419 0 50
24 c79 36 119 92 152 211 4 17 9 -1634 11 -3667 1 -2454 5 -3698 12 -3698 7 0
10 3015 10 9000 0 5993 -3 9000 -10 9000 -7 0 -10 -1116 -10 -3327z m-2 -6623
c0 -322 -4 -596 -8 -610 -4 -14 -8 261 -8 610 0 349 4 624 8 610 4 -14 8 -288
8 -610z"/>
<path d="M8525 15550 c-310 -41 -609 -214 -796 -462 -106 -142 -171 -279 -217
-458 l-27 -105 0 -6085 0 -6085 27 -105 c118 -460 438 -780 898 -898 l105 -27
4985 0 4985 0 95 24 c122 31 206 62 300 113 310 166 518 436 608 788 l27 105
0 6085 0 6085 -27 105 c-117 458 -432 774 -893 898 l-100 27 -4955 1 c-2725 1
-4982 -2 -5015 -6z m9911 -21 c250 -27 465 -121 655 -283 194 -166 332 -408
386 -673 17 -84 18 -368 18 -6133 0 -5765 -1 -6049 -18 -6133 -85 -418 -367
-750 -757 -892 -41 -15 -115 -37 -165 -48 l-90 -22 -4890 -3 c-3442 -2 -4922
0 -4997 8 -188 19 -353 72 -502 163 -285 172 -472 437 -549 775 l-22 97 0
6050 c0 5770 1 6054 18 6138 49 241 157 446 322 611 198 199 434 313 713 346
108 12 9765 12 9878 -1z"/>
<path d="M11942 14758 c-7 -7 -12 -24 -12 -38 0 -34 17 -50 52 -50 37 0 57 38
40 75 -13 27 -58 35 -80 13z"/>
<path d="M13403 14745 c-48 -29 -78 -84 -88 -162 l-7 -53 -40 0 c-32 0 -39 -3
-36 -17 2 -13 14 -19 41 -21 l37 -3 0 -169 c0 -183 -5 -200 -56 -200 -13 0
-24 -4 -24 -10 0 -6 52 -10 135 -10 83 0 135 4 135 10 0 6 -15 10 -33 10 -62
0 -67 16 -67 203 l0 166 52 3 c41 2 54 7 56 21 3 14 -5 17 -52 17 l-56 0 0 78
c0 91 15 122 60 122 22 0 37 -10 61 -40 33 -41 74 -54 85 -26 4 10 15 13 38 9
27 -4 36 -1 50 18 20 29 20 43 0 63 -21 22 -61 20 -76 -3 -11 -19 -12 -19 -47
0 -51 27 -116 25 -168 -6z"/>
<path d="M13874 14747 c-61 -26 -69 -40 -28 -47 l29 -5 3 -260 c1 -143 0 -270
-3 -282 -3 -13 -16 -25 -30 -29 -55 -14 -19 -24 85 -24 67 0 110 4 110 10 0 6
-10 10 -23 10 -46 0 -47 6 -47 337 l0 313 -22 -1 c-13 0 -46 -10 -74 -22z"/>
<path d="M8788 14729 c-54 -28 -88 -83 -88 -142 0 -87 25 -116 183 -209 124
-73 148 -97 149 -147 2 -59 -46 -101 -115 -101 -92 0 -157 47 -178 130 -7 28
-19 50 -26 50 -10 0 -13 -26 -13 -110 0 -91 3 -110 15 -110 8 0 15 6 15 14 0
25 16 26 75 6 67 -23 161 -26 208 -6 76 31 126 127 106 201 -15 57 -60 99
-174 163 -116 64 -165 108 -165 146 0 92 128 125 213 55 26 -21 41 -46 53 -84
10 -30 21 -55 26 -55 4 0 8 50 8 110 0 61 -3 110 -6 110 -3 0 -13 -9 -22 -21
l-17 -20 -45 20 c-60 27 -151 27 -202 0z"/>
<path d="M9721 14517 c-63 -26 -78 -47 -33 -47 38 0 42 -19 42 -184 0 -130
-11 -166 -51 -166 -10 0 -19 -4 -19 -10 0 -6 43 -10 110 -10 67 0 110 4 110
10 0 6 -9 10 -19 10 -44 0 -51 23 -51 163 0 73 4 137 8 143 12 20 76 54 100
54 12 0 31 -9 42 -20 18 -18 20 -33 20 -168 0 -157 -4 -172 -47 -172 -13 0
-23 -4 -23 -10 0 -6 43 -10 110 -10 67 0 110 4 110 10 0 6 -8 10 -19 10 -10 0
-23 6 -29 13 -5 6 -12 82 -14 167 -4 161 -10 186 -52 222 -24 20 -87 24 -119
7 -12 -6 -37 -25 -54 -42 l-33 -31 0 42 c0 50 -9 52 -89 19z"/>
<path d="M10285 14524 c-83 -43 -120 -110 -119 -214 0 -81 20 -135 66 -177 46
-44 133 -57 187 -29 39 21 87 77 101 121 13 40 4 61 -14 30 -6 -11 -25 -34
-42 -52 -26 -27 -40 -33 -73 -33 -91 0 -134 53 -140 171 -3 66 0 84 18 112 43
71 127 73 146 4 13 -47 26 -59 60 -55 63 7 55 69 -14 115 -41 28 -130 31 -176
7z"/>
<path d="M10624 14517 c-62 -26 -70 -41 -26 -45 l32 -3 0 -166 0 -165 -30 -11
c-16 -6 -30 -15 -30 -19 0 -4 50 -8 110 -8 61 0 110 3 110 8 0 4 -15 14 -33
22 l-32 15 -3 133 c-2 122 -1 136 18 163 24 33 40 36 75 13 49 -32 99 23 60
66 -30 33 -78 26 -120 -17 l-35 -36 0 36 c0 32 -3 37 -22 36 -13 0 -46 -10
-74 -22z"/>
<path d="M11035 14523 c-122 -64 -163 -229 -86 -344 42 -61 93 -89 164 -89
100 0 168 52 203 155 19 54 15 136 -9 182 -21 40 -66 83 -104 99 -43 19 -131
17 -168 -3z m109 -27 c66 -28 107 -151 87 -264 -13 -71 -44 -102 -101 -102
-75 0 -124 90 -124 227 0 79 17 116 65 140 30 16 33 16 73 -1z"/>
<path d="M11424 14517 c-61 -26 -69 -40 -28 -47 l29 -5 3 -159 c3 -165 -2
-186 -39 -186 -11 0 -19 -4 -19 -10 0 -6 43 -10 110 -10 112 0 136 8 78 25
l-33 10 -3 147 -3 146 28 20 c63 44 115 40 132 -9 6 -18 11 -89 11 -160 0
-135 -8 -159 -51 -159 -10 0 -19 -4 -19 -10 0 -6 43 -10 110 -10 67 0 110 4
110 10 0 6 -9 10 -19 10 -42 0 -51 35 -51 188 0 107 -4 150 -15 172 -36 70
-109 80 -186 25 l-49 -35 0 35 c0 30 -3 35 -22 34 -13 0 -46 -10 -74 -22z"/>
<path d="M11931 14517 c-63 -26 -78 -47 -33 -47 38 0 42 -19 42 -184 0 -130
-11 -166 -51 -166 -10 0 -19 -4 -19 -10 0 -6 43 -10 110 -10 67 0 110 4 110
10 0 6 -9 10 -19 10 -47 0 -51 19 -51 226 0 221 6 210 -89 171z"/>
<path d="M12685 14528 c-32 -17 -76 -61 -91 -91 -41 -77 -36 -198 11 -269 61
-92 200 -105 271 -26 28 30 54 82 54 108 0 30 -13 25 -33 -13 -37 -68 -123
-86 -186 -40 -32 24 -71 98 -71 135 l0 28 149 0 148 0 -8 46 c-11 57 -39 97
-83 118 -39 18 -131 21 -161 4z m119 -59 c14 -17 26 -41 26 -55 0 -24 -1 -24
-95 -24 -84 0 -95 2 -95 18 0 19 25 60 50 79 8 7 31 13 52 13 28 0 42 -7 62
-31z"/>
<path d="M13604 14517 c-61 -26 -69 -40 -28 -47 l29 -5 3 -159 c3 -165 -2
-186 -39 -186 -11 0 -19 -4 -19 -10 0 -6 42 -10 105 -10 63 0 105 4 105 10 0
6 -9 10 -20 10 -34 0 -40 32 -40 229 l0 191 -22 -1 c-13 0 -46 -10 -74 -22z"/>
<path d="M14178 14511 c-65 -41 -93 -102 -92 -201 0 -89 24 -144 79 -186 42
-32 114 -42 169 -24 41 13 101 84 111 131 7 31 -4 55 -13 30 -3 -8 -20 -30
-38 -50 -29 -32 -38 -36 -82 -36 -80 0 -140 56 -149 139 l-6 46 148 0 148 0
-6 42 c-16 121 -158 179 -269 109z m124 -22 c18 -10 48 -65 48 -89 0 -6 -36
-10 -95 -10 -79 0 -95 3 -95 15 0 24 28 73 47 84 24 14 69 14 95 0z"/>
<path d="M14576 14519 c-89 -70 -69 -167 48 -226 89 -44 116 -70 116 -108 0
-101 -166 -68 -187 37 -3 15 -12 28 -19 28 -11 0 -14 -18 -14 -74 l0 -75 33 0
c17 0 59 -3 92 -6 111 -13 181 42 172 133 -6 57 -33 85 -129 133 -43 21 -85
50 -94 64 -32 49 12 94 80 81 37 -7 72 -42 82 -83 4 -12 12 -23 20 -23 11 0
14 16 14 68 l0 67 -94 3 c-82 2 -96 0 -120 -19z"/>
<path d="M9170 14523 c0 -5 14 -16 31 -25 24 -14 47 -52 115 -193 46 -97 84
-184 84 -193 0 -24 -44 -114 -63 -130 -12 -11 -24 -11 -55 -1 -29 8 -44 8 -61
0 -41 -22 -21 -31 69 -31 l90 0 18 38 c11 20 61 142 113 271 73 181 99 236
117 244 40 19 23 27 -55 27 -70 -1 -76 -2 -59 -15 10 -8 24 -16 30 -18 6 -2
-11 -58 -44 -141 l-54 -138 -58 123 c-62 130 -68 162 -30 167 12 2 22 8 22 13
0 5 -47 9 -105 9 -58 0 -105 -3 -105 -7z"/>
<path d="M12150 14470 c0 -47 3 -60 15 -60 8 0 15 9 15 21 0 11 5 29 10 40 10
17 22 19 111 19 l99 0 -135 -180 c-75 -99 -138 -187 -141 -195 -5 -13 21 -15
190 -15 l196 0 0 65 c0 70 -15 87 -26 30 -3 -19 -13 -40 -21 -47 -16 -13 -223
-26 -223 -14 0 4 61 88 135 187 75 99 138 186 141 194 5 13 -20 15 -180 15
l-186 0 0 -60z"/>
<path d="M8520 12660 l0 -860 3600 0 3600 0 0 860 0 860 -3600 0 -3600 0 0
-860z m7180 0 l0 -840 -3580 0 -3580 0 0 840 0 840 3580 0 3580 0 0 -840z"/>
<path d="M11914 13016 c-10 -26 4 -48 28 -44 17 2 23 10 23 28 0 18 -6 26 -23
28 -13 2 -25 -3 -28 -12z"/>
<path d="M13098 13013 c-40 -16 -50 -32 -20 -29 16 1 17 -15 20 -190 2 -190 2
-191 -20 -202 -19 -9 -9 -11 52 -11 61 0 71 2 53 11 -23 11 -23 13 -23 225 0
233 3 224 -62 196z"/>
<path d="M13281 13016 c-38 -13 -53 -35 -24 -32 17 1 18 -13 21 -184 3 -179 2
-186 -19 -202 -21 -18 -19 -18 52 -17 59 0 70 2 52 11 -12 6 -24 20 -27 32 -3
11 -6 108 -6 214 0 105 -3 192 -7 191 -5 0 -23 -6 -42 -13z"/>
<path d="M13685 13008 c-30 -24 -55 -74 -55 -113 0 -20 -5 -25 -25 -25 -14 0
-25 -4 -25 -10 0 -5 11 -10 25 -10 l25 0 0 -120 0 -119 -27 -15 c-27 -14 -23
-15 62 -14 50 0 81 3 70 5 -42 10 -45 21 -45 144 l0 119 35 0 c19 0 35 5 35
10 0 6 -16 10 -35 10 l-35 0 0 60 c0 50 3 61 21 71 18 9 26 6 53 -20 34 -33
50 -38 63 -18 4 6 19 12 33 12 20 0 25 5 25 25 0 18 -6 26 -23 28 -13 2 -24
-3 -28 -12 -5 -14 -8 -14 -27 -1 -31 22 -90 19 -122 -7z"/>
<path d="M14003 13013 c-36 -18 -43 -32 -15 -29 15 1 17 -15 20 -184 3 -179 2
-186 -19 -202 -21 -18 -19 -18 52 -17 59 0 70 2 52 11 -12 6 -24 20 -27 32 -3
11 -6 108 -6 214 0 209 2 204 -57 175z"/>
<path d="M9808 12992 c-27 -16 -58 -66 -58 -94 0 -35 44 -79 120 -123 110 -64
133 -102 90 -145 -25 -25 -88 -27 -131 -4 -18 9 -38 32 -49 57 l-19 42 0 -74
c-1 -63 1 -72 13 -62 11 9 25 10 53 2 108 -30 197 8 209 90 7 51 -23 91 -103
135 -108 60 -123 72 -123 103 0 55 66 79 129 47 27 -14 51 -53 51 -81 0 -8 5
-15 10 -15 6 0 10 30 10 70 0 39 -4 70 -9 70 -5 0 -11 -5 -13 -12 -3 -9 -12
-9 -38 0 -47 17 -110 14 -142 -6z"/>
<path d="M10087 12852 c25 -19 133 -235 133 -264 0 -22 -15 -55 -37 -80 -10
-12 -22 -14 -36 -9 -35 12 -57 2 -57 -25 0 -29 39 -42 76 -25 34 15 54 52 125
230 35 88 71 164 83 173 20 17 20 18 -33 18 -49 0 -53 -2 -36 -14 17 -13 17
-16 -9 -87 -42 -114 -40 -114 -86 -19 l-41 85 22 18 c21 17 19 17 -52 17 -72
0 -73 -1 -52 -18z"/>
<path d="M10425 12850 c-38 -18 -39 -21 -5 -24 12 -1 16 -21 18 -106 3 -97 1
-106 -19 -122 -21 -18 -19 -18 52 -17 59 0 70 2 52 11 -27 13 -33 35 -33 124
0 79 12 99 67 110 45 9 54 -16 51 -128 -3 -87 -4 -93 -28 -105 -22 -11 -16
-13 55 -12 63 0 75 3 58 11 -28 14 -33 34 -33 146 0 102 -15 132 -66 132 -27
0 -84 -29 -84 -42 0 -4 -4 -8 -10 -8 -5 0 -10 11 -10 25 0 29 -11 30 -65 5z"/>
<path d="M10820 12863 c-47 -17 -90 -83 -90 -138 0 -139 156 -198 224 -85 29
50 19 65 -18 26 -21 -23 -43 -36 -58 -36 -85 0 -128 147 -60 201 35 27 64 21
81 -18 16 -37 54 -46 66 -16 10 29 -47 73 -93 72 -20 0 -44 -3 -52 -6z"/>
<path d="M11038 12853 c-35 -14 -57 -40 -24 -27 24 9 36 -30 36 -118 0 -88 -3
-98 -35 -116 -16 -9 -5 -11 60 -11 65 0 76 2 60 11 -32 18 -35 28 -35 114 0
67 3 84 20 102 19 20 23 21 44 7 20 -14 25 -14 35 -1 40 48 -31 76 -74 30
l-25 -27 0 27 c0 30 -10 31 -62 9z"/>
<path d="M11292 12845 c-42 -35 -62 -74 -62 -120 0 -83 58 -145 135 -145 127
0 189 165 95 255 -23 22 -41 29 -83 33 -47 4 -57 1 -85 -23z m99 -5 c31 -17
52 -70 52 -134 0 -52 -3 -62 -27 -83 -61 -52 -126 14 -126 127 0 41 5 56 25
75 26 27 46 31 76 15z"/>
<path d="M11565 12850 c-30 -14 -34 -19 -19 -19 29 -1 34 -18 34 -119 0 -92
-3 -102 -35 -120 -16 -9 -5 -11 60 -11 77 0 79 0 53 15 -27 14 -28 17 -28 104
0 84 1 90 26 109 37 29 72 27 84 -5 6 -14 10 -63 10 -109 0 -82 -1 -85 -27
-99 -27 -15 -25 -15 52 -15 77 0 79 0 53 15 -28 15 -28 16 -28 118 0 89 -3
107 -21 130 -26 33 -65 34 -113 1 l-36 -24 0 24 c0 29 -11 30 -65 5z"/>
<path d="M11905 12852 c-36 -17 -38 -19 -17 -24 21 -6 22 -11 22 -116 0 -103
-1 -110 -22 -120 -19 -9 -9 -11 52 -11 61 0 71 2 53 11 -22 11 -23 16 -23 145
0 147 2 144 -65 115z"/>
<path d="M12060 12828 c1 -37 2 -40 12 -23 19 35 40 45 95 45 29 0 53 -3 53
-6 0 -3 -39 -57 -86 -121 -47 -63 -88 -121 -91 -129 -4 -12 17 -14 121 -14
l126 0 -1 48 c-1 46 -1 46 -10 15 -11 -38 -31 -45 -111 -41 l-57 3 94 125 c52
69 95 128 95 133 0 4 -54 7 -120 7 l-120 0 0 -42z"/>
<path d="M12393 12849 c-84 -54 -79 -210 8 -255 62 -31 131 -8 164 56 20 39 9
43 -25 9 -30 -31 -53 -35 -94 -19 -30 11 -66 65 -66 98 0 21 3 22 101 22 l101
0 -6 28 c-4 15 -20 39 -37 55 -37 34 -98 37 -146 6z m80 -10 c25 -14 37 -28
37 -46 0 -9 -20 -13 -65 -13 -36 0 -65 3 -65 6 0 16 24 46 43 54 29 11 25 12
50 -1z"/>
<path d="M12816 12849 c-35 -27 -38 -82 -4 -77 16 2 24 12 28 32 7 39 31 53
65 38 22 -10 26 -18 23 -44 -3 -27 -9 -33 -46 -47 -66 -24 -105 -61 -105 -99
0 -66 65 -93 123 -52 l29 21 11 -21 c6 -11 20 -20 31 -20 22 0 75 47 65 57 -4
4 -12 1 -18 -5 -24 -24 -28 -10 -28 88 0 94 -2 103 -25 125 -32 33 -110 35
-149 4z m112 -161 c-3 -49 -5 -53 -35 -62 -68 -19 -86 49 -24 91 53 36 63 31
59 -29z"/>
<path d="M13825 12852 c-36 -17 -38 -19 -17 -24 21 -6 22 -11 22 -116 0 -103
-1 -110 -22 -120 -19 -9 -9 -11 52 -11 61 0 71 2 53 11 -22 11 -23 16 -23 145
0 147 2 144 -65 115z"/>
<path d="M14189 12831 c-38 -37 -39 -41 -39 -106 0 -65 1 -69 39 -106 32 -32
45 -39 79 -39 46 0 97 35 113 78 14 36 5 37 -29 2 -58 -58 -136 -24 -156 68
l-8 32 101 0 c109 0 113 3 90 53 -15 34 -60 57 -109 57 -36 0 -48 -6 -81 -39z
m119 -9 c26 -33 15 -42 -53 -42 -36 0 -65 3 -65 6 0 3 5 14 11 25 21 39 80 45
107 11z"/>
<path d="M14467 12850 c-21 -17 -27 -30 -27 -61 0 -41 7 -48 105 -101 52 -28
42 -88 -14 -88 -27 0 -57 25 -79 65 -10 17 -11 12 -12 -30 l0 -50 59 -3 c92
-5 131 22 131 87 0 33 -17 50 -87 85 -62 31 -81 57 -57 80 8 9 25 16 37 16 28
0 67 -26 67 -45 0 -8 5 -17 10 -20 6 -4 10 11 10 37 l0 43 -58 3 c-47 2 -64
-2 -85 -18z"/>
<path d="M11733 11173 c-57 -20 -138 -94 -171 -157 -24 -46 -27 -61 -27 -156
0 -100 2 -108 34 -168 59 -108 148 -161 271 -162 58 0 86 6 127 24 170 80 239
290 152 465 -55 110 -154 171 -274 170 -38 0 -89 -7 -112 -16z m203 -48 c32
-19 50 -39 71 -82 26 -55 28 -66 28 -188 0 -112 -3 -137 -21 -176 -32 -68 -82
-102 -159 -107 -73 -5 -111 11 -149 61 -46 60 -59 113 -60 232 0 94 3 117 22
160 41 90 89 124 176 125 35 0 62 -7 92 -25z"/>
<path d="M12210 11170 c0 -5 10 -10 23 -10 13 0 32 -6 43 -14 18 -14 19 -29
19 -286 0 -257 -1 -272 -19 -286 -11 -8 -30 -14 -43 -14 -13 0 -23 -4 -23 -10
0 -6 53 -10 140 -10 87 0 140 4 140 10 0 6 -13 10 -28 10 -59 0 -67 16 -71
154 l-3 126 33 0 c32 0 39 -8 139 -150 l105 -150 93 0 c93 0 123 13 56 26 -20
4 -52 20 -71 37 -28 24 -144 179 -177 234 -5 9 6 18 33 29 51 20 98 73 107
120 14 78 -41 161 -123 183 -49 14 -373 15 -373 1z m331 -53 c39 -26 63 -85
53 -130 -11 -50 -59 -94 -115 -106 -95 -21 -89 -28 -89 117 0 71 3 132 7 135
3 4 30 7 58 7 38 0 61 -6 86 -23z"/>
<path d="M8478 10008 c-2 -172 -2 -523 0 -780 l2 -468 3640 0 3640 0 0 780 0
780 -3640 0 -3639 0 -3 -312z m7262 -163 c0 -250 -2 -455 -4 -455 -31 0 -36
15 -36 105 0 50 -5 106 -11 124 -20 56 -77 68 -128 25 l-31 -26 0 26 c0 30 -6
31 -60 10 -41 -17 -53 -33 -22 -30 15 1 17 -11 20 -110 3 -107 2 -111 -20
-122 -19 -9 -10 -11 52 -11 61 0 71 2 53 11 -22 10 -23 17 -23 110 l0 98 36
17 c59 29 68 14 72 -109 3 -100 2 -105 -20 -116 -19 -9 -11 -11 50 -11 l72 -1
0 -300 0 -300 -3620 0 -3620 0 0 311 0 311 23 -6 c99 -30 187 -12 220 43 41
70 11 123 -102 185 -85 47 -111 70 -111 98 0 36 29 58 74 58 52 0 83 -21 106
-74 l19 -41 0 74 c1 63 -1 72 -14 61 -11 -9 -22 -9 -51 0 -46 16 -119 8 -144
-15 -20 -18 -20 -16 -20 248 l0 267 3620 0 3620 0 0 -455z m-7062 -328 c49
-45 15 -107 -60 -107 -86 0 -118 40 -118 149 l0 70 78 -46 c42 -25 87 -54 100
-66z"/>
<path d="M10634 9815 c-9 -23 3 -45 24 -45 11 0 25 7 32 15 16 19 -3 45 -32
45 -10 0 -21 -7 -24 -15z"/>
<path d="M11518 9813 c-40 -16 -50 -32 -20 -29 15 1 17 -15 20 -182 l2 -183
33 -19 c61 -37 139 -21 190 39 93 110 -22 290 -134 210 l-29 -20 0 100 c0 111
0 111 -62 84z m157 -199 c23 -9 45 -57 45 -99 0 -77 -54 -129 -108 -102 -26
12 -27 16 -30 97 -2 71 0 87 14 97 19 14 53 17 79 7z"/>
<path d="M12418 9814 c-35 -18 -58 -62 -58 -109 0 -32 -2 -35 -30 -35 -38 0
-40 -18 -2 -22 l27 -3 3 -103 c3 -109 -5 -137 -41 -152 -15 -6 9 -9 73 -9 70
1 87 3 66 9 -16 5 -33 15 -37 22 -5 7 -9 64 -9 126 l0 112 35 0 c19 0 35 5 35
10 0 6 -16 10 -35 10 l-35 0 0 54 c0 36 5 60 16 70 22 22 32 20 64 -14 27 -29
60 -40 60 -20 0 6 11 10 24 10 33 0 53 25 36 45 -16 19 -49 19 -56 0 -5 -13
-8 -13 -27 0 -27 19 -74 19 -109 -1z"/>
<path d="M12728 9813 c-40 -16 -50 -32 -20 -29 16 1 17 -15 20 -190 2 -190 2
-191 -20 -202 -19 -9 -9 -11 52 -11 61 0 71 2 53 11 -23 11 -23 13 -23 225 0
233 3 224 -62 196z"/>
<path d="M14990 9815 c-10 -12 -10 -18 0 -30 20 -25 55 -15 55 15 0 30 -35 40
-55 15z"/>
<path d="M13975 9740 c-4 -12 -22 -37 -41 -55 -30 -31 -32 -35 -14 -35 19 0
20 -6 20 -107 0 -126 11 -157 56 -161 21 -2 36 4 54 22 25 27 21 48 -5 26 -8
-7 -22 -10 -30 -6 -12 4 -15 26 -15 116 l0 110 30 0 c17 0 30 5 30 10 0 6 -13
10 -30 10 -29 0 -30 2 -30 45 0 47 -14 60 -25 25z"/>
<path d="M8812 9647 c16 -13 51 -72 82 -139 l55 -118 -18 -44 c-21 -48 -35
-57 -67 -45 -32 11 -63 -13 -48 -38 18 -29 58 -28 93 4 22 20 49 75 101 202
38 95 78 180 87 187 16 12 11 13 -37 13 -42 0 -51 -2 -37 -10 23 -14 22 -23
-16 -117 l-33 -82 -37 77 c-42 88 -45 108 -19 122 13 8 -2 10 -58 11 l-75 0
27 -23z"/>
<path d="M9158 9653 c-40 -16 -50 -32 -20 -29 15 1 17 -11 20 -110 3 -107 2
-111 -20 -122 -19 -9 -10 -11 52 -11 61 0 71 2 53 11 -22 10 -23 17 -23 110
l0 98 36 17 c59 29 68 14 72 -109 3 -100 2 -105 -20 -116 -19 -9 -10 -11 52
-11 61 0 71 2 53 11 -21 10 -23 18 -23 103 0 51 -5 106 -11 124 -20 56 -77 68
-128 25 l-31 -26 0 26 c0 30 -10 31 -62 9z"/>
<path d="M9523 9650 c-66 -40 -88 -117 -55 -193 41 -94 162 -104 207 -17 22
42 20 74 -2 38 -21 -33 -64 -52 -98 -44 -63 16 -89 143 -40 192 32 32 63 28
85 -11 26 -48 81 -44 65 4 -15 48 -106 66 -162 31z"/>
<path d="M9755 9651 c-37 -17 -38 -19 -15 -22 25 -4 25 -5 28 -111 l3 -107
-28 -15 c-27 -15 -25 -15 50 -16 50 0 76 4 72 10 -3 6 -12 10 -20 10 -19 0
-25 23 -25 104 0 59 4 78 21 99 19 25 22 26 43 11 21 -13 25 -13 40 1 19 20
20 27 4 43 -20 20 -50 14 -80 -15 l-28 -27 0 27 c0 31 -10 32 -65 8z"/>
<path d="M10019 9647 c-67 -44 -87 -128 -47 -198 54 -97 191 -90 238 14 25 54
25 81 0 132 -36 74 -123 98 -191 52z m111 -25 c54 -54 50 -191 -6 -212 -38
-15 -72 4 -94 52 -56 122 19 241 100 160z"/>
<path d="M10291 9651 c-31 -16 -32 -18 -12 -24 20 -5 21 -11 21 -110 0 -98 -2
-107 -22 -121 -21 -15 -18 -16 52 -15 60 0 71 2 53 11 -27 13 -33 35 -33 124
0 79 12 99 67 110 45 9 54 -16 51 -128 -3 -87 -4 -93 -28 -105 -22 -11 -16
-13 55 -12 63 0 75 3 58 11 -28 14 -33 34 -33 146 0 102 -15 132 -66 132 -27
0 -84 -29 -84 -42 0 -4 -4 -8 -10 -8 -5 0 -10 11 -10 25 0 29 -13 31 -59 6z"/>
<path d="M10625 9651 c-30 -15 -35 -20 -19 -20 26 -1 34 -33 34 -125 0 -79 -7
-101 -33 -114 -18 -8 -6 -11 53 -11 71 0 74 1 53 16 -22 15 -23 22 -23 144 0
143 1 141 -65 110z"/>
<path d="M10780 9629 c0 -24 4 -38 10 -34 6 3 10 13 10 20 0 8 9 19 19 25 21
11 121 14 121 4 0 -4 -40 -62 -90 -130 -49 -67 -90 -125 -90 -128 0 -3 56 -6
124 -6 104 0 125 3 130 16 10 25 7 74 -4 74 -5 0 -10 -11 -10 -25 0 -33 -27
-45 -105 -45 l-66 0 91 120 c50 66 93 127 96 135 5 13 -11 15 -115 15 l-121 0
0 -41z"/>
<path d="M11099 9631 c-37 -37 -39 -42 -39 -101 0 -97 44 -150 125 -150 30 0
45 8 76 39 22 21 39 46 39 55 0 22 -4 21 -38 -14 -58 -58 -136 -24 -156 68
l-8 32 101 0 c109 0 113 3 90 53 -15 34 -60 57 -109 57 -36 0 -48 -6 -81 -39z
m119 -9 c26 -33 15 -42 -53 -42 -36 0 -65 3 -65 6 0 3 5 14 11 25 21 39 80 45
107 11z"/>
<path d="M11819 9648 c13 -12 48 -73 78 -137 52 -111 54 -118 42 -153 -17 -53
-39 -71 -72 -59 -20 8 -30 7 -42 -5 -22 -22 -2 -54 33 -54 54 0 78 35 153 220
42 104 79 182 92 192 22 17 21 18 -32 18 -48 0 -53 -2 -36 -13 17 -13 17 -18
-16 -100 -19 -48 -37 -87 -40 -87 -7 0 -79 154 -79 168 0 5 10 14 23 20 18 9
9 11 -52 11 l-75 1 23 -22z"/>
<path d="M12545 9651 c-30 -15 -35 -20 -19 -20 26 -1 34 -33 34 -125 0 -79 -7
-101 -33 -114 -18 -8 -6 -11 53 -11 71 0 74 1 53 16 -22 15 -23 22 -23 144 0
143 1 141 -65 110z"/>
<path d="M12933 9650 c-48 -29 -66 -72 -61 -143 4 -54 8 -63 41 -93 29 -27 45
-34 77 -34 48 0 85 22 106 61 21 42 17 58 -9 26 -14 -17 -35 -30 -58 -33 -30
-5 -42 -1 -68 22 -19 17 -36 44 -40 67 l-9 37 99 0 c107 0 111 2 87 55 -24 54
-106 71 -165 35z m95 -22 c6 -6 12 -19 12 -29 0 -17 -8 -19 -60 -19 -59 0 -71
8 -52 36 21 32 68 37 100 12z"/>
<path d="M13374 9650 c-40 -26 -59 -71 -58 -135 0 -57 23 -99 65 -121 62 -31
131 -8 164 56 20 39 9 43 -25 9 -30 -31 -53 -35 -94 -19 -30 11 -66 65 -66 98
0 21 3 22 101 22 l101 0 -6 28 c-4 15 -20 39 -37 55 -37 34 -98 37 -145 7z
m79 -11 c25 -14 37 -28 37 -46 0 -9 -20 -13 -65 -13 -36 0 -65 3 -65 6 0 16
24 46 43 54 29 11 25 12 50 -1z"/>
<path d="M13585 9660 c3 -5 12 -10 18 -10 7 0 32 -28 56 -61 l43 -59 -42 -58
c-24 -31 -52 -65 -64 -74 -20 -17 -20 -18 34 -17 50 0 53 1 36 14 -18 13 -18
15 3 48 39 63 47 64 80 11 28 -44 29 -48 13 -60 -14 -11 -6 -13 56 -14 46 0
71 4 67 10 -3 6 -12 10 -19 10 -8 0 -37 34 -66 76 l-52 75 37 47 c20 26 46 52
58 59 19 11 16 12 -32 13 -46 0 -52 -2 -41 -15 9 -11 8 -20 -10 -45 -12 -16
-23 -30 -26 -30 -2 0 -13 14 -24 32 -18 30 -18 32 -2 44 14 11 6 13 -56 14
-46 0 -71 -4 -67 -10z"/>
<path d="M14153 9649 c-84 -54 -79 -210 8 -255 62 -31 131 -8 164 56 20 39 9
43 -25 9 -30 -31 -53 -35 -94 -19 -30 11 -66 65 -66 98 0 21 3 22 101 22 l101
0 -6 28 c-4 15 -20 39 -37 55 -37 34 -98 37 -146 6z m80 -10 c25 -14 37 -28
37 -46 0 -9 -20 -13 -65 -13 -36 0 -65 3 -65 6 0 16 24 46 43 54 29 11 25 12
50 -1z"/>
<path d="M14395 9651 c-23 -11 -32 -20 -22 -20 25 -1 37 -41 37 -119 0 -85 -6
-107 -33 -120 -17 -8 -5 -11 58 -11 76 0 79 0 53 15 -27 14 -28 17 -28 104 0
84 1 90 27 110 59 46 93 7 93 -110 0 -80 -4 -90 -35 -108 -16 -9 -6 -11 55
-12 70 0 73 1 52 16 -20 14 -22 23 -22 120 0 98 -2 107 -25 129 -31 32 -69 32
-112 -1 l-33 -25 0 25 c0 31 -12 32 -65 7z"/>
<path d="M14737 9650 c-21 -17 -27 -30 -27 -60 0 -42 15 -57 98 -99 31 -16 42
-27 42 -44 0 -65 -90 -61 -123 6 l-16 32 0 -50 -1 -50 59 -3 c92 -5 131 22
131 87 0 33 -17 50 -87 85 -62 31 -81 57 -57 80 31 31 104 9 104 -32 0 -6 5
-14 10 -17 6 -4 10 11 10 37 l0 43 -58 3 c-47 2 -64 -2 -85 -18z"/>
<path d="M14975 9651 c-37 -17 -38 -19 -15 -22 25 -4 25 -6 28 -109 3 -97 1
-106 -19 -122 -21 -18 -19 -18 52 -17 61 0 70 2 52 11 -22 11 -23 16 -23 145
0 150 1 148 -75 114z"/>
<path d="M15189 9647 c-44 -30 -74 -100 -65 -152 4 -20 22 -53 41 -73 31 -35
37 -37 93 -37 51 0 65 4 87 25 38 36 55 73 55 121 0 111 -120 178 -211 116z
m100 -13 c63 -44 70 -193 11 -224 -67 -36 -141 90 -110 184 18 55 56 70 99 40z"/>
<path d="M8460 7840 l0 -420 4150 0 4150 0 0 420 0 420 -4150 0 -4150 0 0
-420z m3580 0 l0 -400 -1780 0 -1780 0 0 400 0 400 1780 0 1780 0 0 -400z
m3780 0 l0 -400 -1870 0 -1870 0 0 400 0 400 1870 0 1870 0 0 -400z m920 0 l0
-380 -450 0 -450 0 0 380 0 380 450 0 450 0 0 -380z"/>
<path d="M11394 8115 c-4 -9 -2 -21 4 -27 15 -15 44 -1 40 19 -4 23 -36 29
-44 8z"/>
<path d="M8550 8104 c33 -13 40 -37 40 -145 0 -116 -9 -155 -37 -162 -10 -3
28 -5 85 -6 118 -1 166 13 182 54 14 36 2 74 -26 87 -29 14 -30 20 -4 43 29
26 26 76 -6 106 -24 22 -34 24 -137 26 -62 1 -105 0 -97 -3z m190 -34 c27 -27
26 -75 -2 -94 -12 -9 -42 -16 -65 -16 l-43 0 0 65 0 65 45 0 c32 0 51 -6 65
-20z m-7 -141 c28 -15 37 -28 37 -56 0 -39 -34 -63 -90 -63 l-50 0 0 65 0 65
41 0 c22 0 50 -5 62 -11z"/>
<path d="M10622 8045 c-12 -19 -27 -35 -32 -35 -6 0 -10 -4 -10 -10 0 -5 7
-10 15 -10 12 0 15 -16 15 -83 0 -101 13 -127 56 -112 34 12 42 32 12 31 -22
-1 -23 3 -26 82 -3 82 -3 82 23 82 14 0 25 5 25 10 0 6 -11 10 -24 10 -21 0
-25 5 -28 35 l-3 34 -23 -34z"/>
<path d="M8885 7996 c-24 -10 -26 -13 -12 -19 25 -10 25 -161 0 -176 -14 -8
-4 -10 42 -11 57 0 58 1 37 16 -19 13 -22 24 -22 76 0 73 19 105 51 85 16 -10
21 -9 29 3 10 17 -5 40 -26 40 -8 0 -23 -9 -34 -20 l-20 -20 0 20 c0 23 -4 24
-45 6z"/>
<path d="M9064 7976 c-26 -26 -34 -42 -34 -70 0 -77 49 -124 116 -113 47 8 71
31 84 78 19 71 -29 139 -98 139 -25 0 -43 -9 -68 -34z m92 6 c52 -35 43 -172
-12 -172 -61 0 -96 114 -52 167 11 14 47 17 64 5z"/>
<path d="M9268 7993 c11 -10 34 -56 52 -103 17 -47 35 -88 39 -93 4 -4 20 20
36 53 16 33 32 60 36 60 3 0 17 -27 29 -60 12 -33 25 -60 29 -60 3 0 21 41 40
92 19 50 43 100 53 110 17 17 17 18 -19 18 -26 0 -34 -3 -24 -9 12 -8 10 -19
-9 -70 -12 -34 -26 -63 -29 -65 -4 -3 -17 23 -30 56 -23 59 -23 62 -6 75 17
11 11 13 -41 12 -32 -1 -52 -3 -42 -6 9 -2 21 -17 28 -32 10 -25 8 -35 -12
-76 l-24 -47 -22 59 c-25 69 -27 89 -9 96 6 3 -12 6 -42 6 -52 1 -53 0 -33
-16z"/>
<path d="M9640 7990 c-38 -38 -22 -73 51 -111 42 -21 52 -52 22 -67 -24 -13
-44 -5 -70 26 l-23 27 0 -37 0 -38 53 0 c44 0 58 4 76 24 35 37 22 69 -42 103
-63 34 -72 66 -20 71 26 3 34 -2 47 -25 l15 -28 1 35 c0 34 -1 35 -45 38 -34
2 -49 -2 -65 -18z"/>
<path d="M9841 7984 c-74 -62 -36 -194 56 -194 33 0 83 45 83 74 -1 21 -1 21
-12 1 -15 -27 -28 -35 -60 -35 -31 0 -68 41 -68 76 0 23 3 24 70 24 62 0 70 2
70 19 0 26 -46 61 -81 61 -15 0 -41 -12 -58 -26z m77 -6 c25 -25 13 -38 -33
-38 -30 0 -45 4 -45 13 0 19 21 37 45 37 12 0 26 -5 33 -12z"/>
<path d="M10175 7988 c-14 -13 -30 -41 -35 -62 -27 -119 112 -189 166 -85 19
38 13 49 -10 14 -32 -49 -110 -23 -122 43 l-6 32 76 0 c42 0 76 2 76 5 0 16
-31 63 -45 69 -33 12 -75 5 -100 -16z m85 -17 c15 -30 14 -31 -40 -31 -52 0
-60 8 -34 34 21 22 61 20 74 -3z"/>
<path d="M10352 7999 c10 -5 32 -30 49 -55 35 -51 37 -43 -35 -121 l-30 -33
38 0 c32 0 37 2 26 14 -9 12 -7 21 11 45 13 17 26 31 29 31 4 0 15 -16 26 -35
17 -31 17 -37 4 -45 -10 -7 2 -10 41 -10 l56 0 -36 38 c-20 21 -42 50 -50 65
-13 24 -12 29 10 61 13 19 33 39 44 45 16 8 12 10 -24 10 -34 1 -41 -2 -33
-12 8 -9 6 -19 -7 -36 l-18 -24 -16 24 c-12 17 -14 26 -5 36 8 10 0 13 -43 13
-41 -1 -50 -3 -37 -11z"/>
<path d="M10761 7984 c-74 -62 -36 -194 56 -194 33 0 83 45 83 74 -1 21 -1 21
-12 1 -15 -27 -28 -35 -60 -35 -31 0 -68 41 -68 76 0 23 3 24 74 24 69 0 74 1
69 20 -8 29 -51 60 -84 60 -15 0 -41 -12 -58 -26z m73 0 c9 -3 16 -15 16 -25
0 -16 -8 -19 -45 -19 -30 0 -45 4 -45 13 0 30 37 45 74 31z"/>
<path d="M10945 7995 c-16 -8 -23 -14 -14 -15 18 0 29 -39 29 -99 0 -52 -10
-79 -29 -84 -9 -3 11 -5 44 -5 33 0 52 2 43 5 -15 4 -18 17 -18 84 0 74 2 80
24 91 46 20 56 7 56 -81 0 -66 -3 -82 -17 -90 -14 -8 -3 -10 42 -10 33 0 53 3
45 6 -25 10 -30 25 -30 104 0 61 -4 79 -18 92 -23 21 -46 21 -77 1 -23 -15
-25 -15 -25 0 0 19 -14 19 -55 1z"/>
<path d="M11200 7990 c-38 -38 -22 -73 52 -111 30 -15 39 -25 36 -42 -5 -36
-57 -36 -85 0 l-23 28 0 -37 0 -38 49 0 c38 0 57 6 77 23 40 35 28 68 -39 104
-63 34 -72 66 -20 71 26 3 34 -2 47 -25 l15 -28 1 35 c0 34 -1 35 -45 38 -34
2 -49 -2 -65 -18z"/>
<path d="M11385 7995 c-19 -9 -24 -14 -12 -15 15 0 17 -11 17 -85 0 -69 -3
-86 -17 -94 -14 -8 -3 -10 42 -10 33 1 52 3 43 6 -16 4 -18 18 -18 109 0 113
-1 114 -55 89z"/>
<path d="M11550 7997 c-14 -7 -33 -29 -44 -51 -51 -104 70 -205 154 -128 95
85 2 235 -110 179z m87 -33 c20 -32 23 -115 4 -137 -18 -23 -54 -21 -76 3 -22
24 -32 109 -16 139 17 31 66 29 88 -5z"/>
<path d="M11745 7995 c-16 -8 -23 -14 -14 -15 18 0 29 -39 29 -99 0 -52 -10
-79 -29 -84 -9 -3 11 -5 44 -5 33 0 52 2 43 5 -15 4 -18 17 -18 84 0 74 2 80
24 91 46 20 56 7 56 -81 0 -66 -3 -82 -17 -90 -14 -8 -3 -10 42 -10 33 0 53 3
45 6 -25 10 -30 25 -30 104 0 61 -4 79 -18 92 -23 21 -46 21 -77 1 -23 -15
-25 -15 -25 0 0 19 -14 19 -55 1z"/>
<path d="M12464 8055 c-4 -9 -2 -21 4 -27 15 -15 44 -1 40 19 -4 23 -36 29
-44 8z"/>
<path d="M13788 8057 c-28 -11 -39 -29 -15 -24 8 1 13 -14 15 -44 3 -45 2 -46
-23 -42 -61 12 -117 -41 -119 -112 -2 -75 52 -121 115 -98 20 8 29 8 32 0 2
-8 13 -7 35 2 27 12 30 15 17 28 -12 11 -15 45 -15 159 0 79 -3 144 -7 143 -5
-1 -20 -6 -35 -12z m-9 -141 c7 -9 11 -41 9 -83 l-3 -68 -32 -3 c-23 -2 -35 3
-47 20 -21 30 -21 106 1 130 19 21 56 24 72 4z"/>
<path d="M13959 8041 c-19 -20 -29 -40 -29 -60 0 -27 -4 -31 -26 -31 -14 0
-23 -4 -19 -10 3 -5 15 -10 26 -10 17 0 19 -8 19 -84 0 -76 -2 -86 -22 -100
-21 -15 -19 -16 47 -15 45 1 61 3 45 8 -24 7 -25 10 -28 99 l-3 92 26 0 c14 0
25 5 25 10 0 6 -11 10 -26 10 -24 0 -25 2 -22 48 3 40 6 47 25 50 14 2 26 -4
33 -17 12 -23 35 -28 46 -9 10 16 -32 48 -63 48 -14 0 -37 -13 -54 -29z"/>
<path d="M12455 7935 c-19 -9 -24 -14 -12 -15 15 0 17 -13 17 -135 0 -111 -3
-135 -14 -135 -8 0 -18 5 -21 10 -11 18 -47 12 -43 -7 4 -24 53 -29 83 -9 33
22 45 73 45 199 0 116 0 117 -55 92z"/>
<path d="M12575 7936 c-24 -10 -26 -13 -12 -19 15 -6 17 -23 17 -137 0 -126
-1 -131 -22 -140 -17 -6 -7 -9 42 -9 49 0 59 3 43 9 -19 8 -23 17 -23 53 l0
45 43 -5 c62 -5 107 40 107 110 0 91 -62 135 -124 86 l-26 -20 0 20 c0 24 -4
25 -45 7z m129 -35 c10 -11 20 -38 23 -60 7 -54 -16 -91 -57 -91 -37 0 -50 23
-50 89 0 40 4 53 22 65 29 21 41 20 62 -3z"/>
<path d="M12845 7925 c-29 -28 -32 -70 -9 -96 14 -16 14 -20 -1 -43 -14 -21
-15 -29 -5 -41 11 -13 9 -20 -9 -38 -29 -31 -27 -44 11 -63 64 -33 165 -2 184
58 8 26 -22 58 -55 58 -53 0 -101 13 -101 26 0 10 13 14 40 14 55 0 95 38 86
81 -5 24 -2 29 14 29 11 0 20 5 20 10 0 6 -15 10 -34 10 -19 0 -38 5 -41 10
-12 20 -75 11 -100 -15z m75 5 c27 -14 35 -65 16 -95 -20 -31 -40 -32 -60 -3
-20 29 -20 72 0 92 18 19 20 19 44 6z m73 -220 c9 -9 6 -16 -12 -31 -26 -21
-90 -26 -122 -9 -19 11 -25 40 -11 54 11 12 132 0 145 -14z"/>
<path d="M13415 7935 c-20 -9 -24 -14 -12 -14 15 -1 17 -14 17 -136 0 -131 -1
-136 -22 -145 -17 -6 -7 -9 42 -9 49 0 59 3 43 9 -19 8 -23 17 -23 54 0 45 0
45 30 40 66 -14 120 37 120 111 0 90 -71 136 -127 83 l-23 -21 0 21 c0 25 -4
26 -45 7z m129 -34 c10 -11 20 -38 23 -60 7 -54 -16 -91 -57 -91 -37 0 -50 23
-50 89 0 40 4 53 22 65 29 21 41 20 62 -3z"/>
<path d="M14430 7930 c-38 -38 -22 -73 52 -111 30 -15 39 -25 36 -42 -5 -36
-57 -36 -85 0 l-23 28 0 -37 0 -38 49 0 c38 0 57 6 77 23 40 35 28 68 -39 104
-63 34 -72 66 -20 71 26 3 34 -2 47 -25 l15 -28 1 35 c0 34 -1 35 -45 38 -34
2 -49 -2 -65 -18z"/>
<path d="M14591 7940 c8 -5 35 -54 58 -109 24 -56 46 -101 50 -101 3 0 24 43
45 96 21 52 45 102 53 110 13 12 9 14 -24 13 -21 0 -32 -3 -25 -6 6 -2 12 -11
12 -19 0 -18 -43 -124 -51 -124 -8 0 -49 102 -49 122 0 9 6 19 13 21 6 3 -13
6 -43 6 -38 0 -50 -2 -39 -9z"/>
<path d="M14877 7930 c-32 -25 -37 -73 -10 -102 15 -17 15 -19 -3 -39 -14 -15
-16 -24 -8 -37 9 -13 6 -23 -9 -44 -23 -32 -17 -55 18 -68 72 -27 167 7 173
63 5 42 -12 54 -89 61 -82 8 -90 28 -14 37 59 7 89 37 80 81 -6 24 -3 28 14
28 36 0 23 18 -16 24 -21 3 -54 8 -73 11 -27 5 -41 2 -63 -15z m78 -6 c21 -22
17 -93 -7 -108 -13 -8 -22 -6 -37 8 -27 25 -29 90 -3 105 23 14 28 14 47 -5z
m67 -212 c7 -7 3 -17 -12 -32 -19 -19 -30 -22 -76 -18 -66 6 -81 17 -64 48 11
21 17 22 77 17 36 -3 69 -9 75 -15z"/>
<path d="M12334 7765 c-4 -9 -2 -21 4 -27 15 -15 44 -1 40 19 -4 23 -36 29
-44 8z"/>
<path d="M13060 7765 c-15 -19 -3 -38 21 -32 30 8 24 -28 -8 -52 -16 -11 -23
-21 -17 -21 25 0 64 42 64 69 0 45 -35 66 -60 36z"/>
<path d="M13303 7764 c-3 -8 -1 -20 5 -26 16 -16 42 -2 42 22 0 24 -38 28 -47
4z"/>
<path d="M14060 7765 c-15 -19 -3 -38 21 -32 30 8 24 -28 -8 -52 -16 -11 -23
-21 -17 -21 25 0 64 42 64 69 0 45 -35 66 -60 36z"/>
<path d="M14303 7764 c-3 -8 -1 -20 5 -26 16 -16 42 -2 42 22 0 24 -38 28 -47
4z"/>
<path d="M21365 15544 c-38 -9 -106 -33 -150 -54 -150 -73 -252 -175 -325
-325 -76 -157 -70 188 -70 -3915 0 -4103 -6 -3758 70 -3915 73 -150 175 -252
325 -325 156 -76 -91 -70 3065 -70 3156 0 2909 -6 3065 70 150 73 252 175 325
325 76 157 70 -188 70 3915 0 3318 -2 3688 -16 3757 -56 271 -266 481 -537
537 -68 14 -363 16 -2914 15 -2464 -1 -2847 -3 -2908 -15z m5795 -18 c148 -27
264 -89 368 -195 72 -74 116 -147 156 -258 l31 -88 3 -3680 c2 -2686 0 -3701
-8 -3759 -22 -155 -82 -277 -191 -385 -77 -78 -164 -131 -274 -169 l-80 -27
-2830 -3 c-2059 -2 -2852 0 -2909 8 -155 22 -277 83 -385 191 -79 79 -123 150
-165 266 l-31 88 -3 3680 c-2 2686 0 3701 8 3759 21 143 76 262 168 362 109
117 248 192 396 214 28 4 1316 8 2861 8 2330 1 2823 -1 2885 -12z"/>
<path d="M24087 14937 c-8 -21 8 -39 29 -35 27 5 25 42 -2 46 -12 2 -24 -3
-27 -11z"/>
<path d="M24784 14935 c-4 -9 -2 -21 4 -27 15 -15 44 -1 40 19 -4 23 -36 29
-44 8z"/>
<path d="M25647 14937 c-8 -21 8 -39 29 -35 27 5 25 42 -2 46 -12 2 -24 -3
-27 -11z"/>
<path d="M21845 14905 c-17 -16 -25 -35 -25 -59 0 -38 19 -56 111 -109 52 -29
64 -49 49 -78 -26 -48 -125 -26 -136 31 -10 49 -24 34 -24 -25 0 -30 5 -55 10
-55 6 0 10 4 10 10 0 6 9 6 26 0 14 -6 45 -10 70 -10 57 0 94 33 94 82 0 46
-8 55 -86 102 -83 50 -95 67 -70 95 35 39 94 18 120 -42 l14 -32 1 59 c1 45
-2 56 -11 48 -8 -5 -22 -6 -33 -1 -42 17 -95 10 -120 -16z"/>
<path d="M22307 14854 c-27 -30 -34 -44 -23 -44 13 0 16 -13 17 -67 2 -108 9
-127 46 -131 23 -2 35 3 47 19 18 26 13 37 -8 20 -27 -22 -36 -2 -36 80 0 78
0 79 25 79 14 0 25 5 25 10 0 6 -11 10 -24 10 -21 0 -25 5 -28 34 l-3 34 -38
-44z"/>
<path d="M24656 14875 c-11 -16 -29 -37 -40 -47 l-21 -17 23 -1 c21 0 22 -4
22 -88 0 -55 4 -92 12 -100 19 -19 55 -14 72 10 19 26 13 36 -10 18 -24 -21
-34 3 -34 88 0 70 1 72 25 72 14 0 25 5 25 10 0 6 -11 10 -24 10 -21 0 -25 5
-28 37 l-3 37 -19 -29z"/>
<path d="M25507 14854 c-27 -30 -34 -44 -23 -44 13 0 16 -13 17 -67 2 -108 9
-127 46 -131 23 -2 35 3 47 19 18 26 13 37 -8 20 -27 -22 -36 -2 -36 80 0 78
0 79 25 79 14 0 25 5 25 10 0 6 -11 10 -24 10 -21 0 -25 5 -28 34 l-3 34 -38
-44z"/>
<path d="M22113 14815 c-12 -8 -27 -31 -33 -51 -37 -112 72 -203 151 -125 16
16 29 37 29 45 0 23 -9 20 -32 -9 -11 -14 -30 -25 -42 -25 -25 0 -60 33 -71
68 -6 21 -5 22 69 22 68 0 76 2 76 19 0 10 -9 30 -21 45 -16 21 -29 26 -63 26
-23 0 -51 -7 -63 -15z m81 -27 c14 -24 5 -30 -43 -26 -41 3 -41 3 -25 26 18
26 51 26 68 0z"/>
<path d="M22554 14805 c-25 -39 -12 -68 46 -99 40 -22 50 -32 48 -49 -5 -33
-50 -35 -76 -3 -27 34 -32 33 -32 -9 l0 -36 61 3 c53 3 65 7 81 29 27 35 10
67 -50 99 -32 17 -47 31 -47 45 0 30 56 28 70 -2 14 -33 25 -28 25 12 l0 35
-55 0 c-47 0 -57 -3 -71 -25z"/>
<path d="M22728 14807 c23 -24 92 -167 92 -189 -1 -7 -7 -24 -15 -38 -10 -19
-22 -25 -47 -25 -26 0 -33 -4 -33 -20 0 -13 8 -21 23 -23 45 -7 67 22 122 155
29 70 59 136 68 146 14 16 12 17 -28 17 -37 0 -41 -2 -28 -12 15 -12 14 -19
-9 -76 l-26 -64 -30 63 c-28 59 -29 63 -11 76 16 11 11 13 -41 13 l-58 0 21
-23z"/>
<path d="M22978 14818 c-16 -5 -28 -14 -28 -20 0 -6 6 -8 14 -5 16 6 26 -32
26 -99 0 -31 -6 -50 -20 -64 l-20 -20 63 1 c47 0 57 2 40 9 -21 8 -23 16 -23
79 0 63 3 72 24 86 43 29 56 12 56 -76 0 -64 -3 -80 -17 -88 -14 -8 -4 -10 42
-10 46 0 56 2 43 10 -15 8 -18 24 -18 87 0 90 -15 122 -58 122 -15 0 -38 -7
-50 -16 -20 -14 -22 -14 -22 0 0 18 -13 19 -52 4z"/>
<path d="M23242 14805 c-51 -43 -52 -120 -3 -172 40 -42 120 -23 142 34 14 36
3 41 -22 10 -42 -54 -109 -15 -109 64 0 64 60 97 80 44 11 -30 50 -35 50 -7 0
53 -87 70 -138 27z"/>
<path d="M23425 14816 c-28 -12 -29 -13 -7 -18 20 -6 22 -12 22 -86 0 -72 -2
-80 -22 -90 -19 -9 -13 -11 40 -11 l62 -1 -20 20 c-15 15 -20 33 -20 73 0 65
11 82 52 82 26 0 33 4 33 20 0 27 -40 32 -66 9 -17 -16 -19 -16 -19 -1 0 20
-14 21 -55 3z"/>
<path d="M23627 14819 c-26 -15 -47 -63 -47 -109 0 -110 144 -139 195 -40 41
79 -10 161 -98 160 -18 0 -40 -5 -50 -11z m88 -29 c25 -28 32 -103 11 -135
-37 -57 -96 -8 -96 79 0 29 5 57 12 64 18 18 53 14 73 -8z"/>
<path d="M23825 14815 c-29 -13 -29 -16 -2 -19 8 -1 13 -26 15 -81 2 -66 0
-82 -14 -92 -15 -11 -9 -13 40 -13 57 0 58 0 37 18 -19 15 -22 25 -19 82 3 58
6 66 30 80 38 21 50 5 56 -78 4 -64 3 -70 -19 -86 -23 -16 -22 -16 36 -16 46
1 56 3 43 11 -15 8 -18 24 -18 87 0 88 -16 122 -56 122 -14 0 -36 -7 -49 -16
-23 -15 -25 -15 -25 0 0 19 -15 20 -55 1z"/>
<path d="M24075 14815 c-29 -14 -29 -16 -2 -19 8 -1 13 -26 15 -81 2 -66 0
-82 -14 -92 -15 -11 -9 -13 42 -13 45 1 55 3 42 11 -15 8 -18 25 -18 109 0
111 -2 113 -65 85z"/>
<path d="M24200 14800 c0 -34 15 -40 23 -10 4 16 14 20 52 20 52 0 53 3 -10
-80 -23 -30 -51 -70 -64 -87 l-22 -33 100 0 101 0 0 38 -1 37 -15 -27 c-13
-25 -20 -28 -65 -28 -58 0 -59 -7 21 100 31 41 60 81 64 88 5 9 -15 12 -88 12
l-96 0 0 -30z"/>
<path d="M24429 14812 c-15 -13 -20 -25 -16 -36 10 -24 41 -16 45 12 3 19 9
23 30 20 20 -2 28 -9 30 -29 3 -22 -4 -28 -48 -48 -61 -28 -79 -60 -55 -97 17
-27 53 -31 86 -11 17 10 23 10 26 0 11 -29 73 -7 73 25 0 12 -3 12 -15 2 -13
-11 -15 -2 -15 67 0 65 -3 83 -18 96 -25 23 -94 22 -123 -1z m91 -121 c0 -42
-20 -58 -54 -45 -38 15 -8 64 52 83 1 1 2 -17 2 -38z"/>
<path d="M24773 14818 c-24 -12 -32 -30 -10 -25 8 1 13 -21 15 -78 2 -66 0
-82 -14 -92 -15 -11 -9 -13 42 -13 45 1 55 3 42 11 -15 8 -18 25 -18 109 0
108 -4 114 -57 88z"/>
<path d="M24927 14809 c-82 -64 -39 -199 63 -199 102 0 144 136 62 200 -33 26
-92 26 -125 -1z m100 -25 c22 -35 23 -118 1 -140 -22 -22 -60 -12 -79 22 -18
34 -18 106 0 127 20 25 58 21 78 -9z"/>
<path d="M25138 14818 c-16 -5 -28 -14 -28 -20 0 -6 6 -8 14 -5 16 6 26 -32
26 -99 0 -31 -6 -50 -20 -64 l-20 -20 63 1 c47 0 57 2 40 9 -21 8 -23 16 -23
79 0 63 3 72 24 86 43 29 56 12 56 -76 0 -64 -3 -80 -17 -88 -14 -8 -4 -10 42
-10 46 0 56 2 43 10 -15 8 -18 24 -18 87 0 90 -15 122 -58 122 -15 0 -38 -7
-50 -16 -20 -14 -22 -14 -22 0 0 18 -13 19 -52 4z"/>
<path d="M25643 14818 c-24 -12 -32 -30 -10 -25 8 1 13 -21 15 -78 2 -66 0
-82 -14 -92 -15 -11 -9 -13 42 -13 45 1 55 3 42 11 -15 8 -18 25 -18 109 0
108 -4 114 -57 88z"/>
<path d="M25763 14818 c-24 -12 -32 -30 -10 -25 8 1 13 -21 15 -78 2 -66 0
-82 -14 -92 -15 -11 -9 -13 41 -13 50 0 56 2 41 13 -14 10 -16 25 -14 87 3 72
4 75 31 84 39 14 47 -2 47 -91 0 -58 -3 -74 -17 -82 -14 -8 -4 -10 42 -10 46
0 56 2 43 10 -15 8 -18 24 -18 85 0 69 2 75 24 86 46 20 56 7 56 -81 0 -66 -3
-82 -17 -90 -14 -8 -4 -10 42 -10 46 0 56 2 43 10 -15 8 -18 24 -18 82 0 40
-6 83 -13 97 -17 34 -70 40 -101 11 -21 -20 -22 -20 -34 -1 -15 25 -68 27 -94
3 -17 -15 -18 -15 -18 0 0 19 -24 21 -57 5z"/>
<path d="M26162 14807 c-70 -75 -34 -197 58 -197 30 0 44 6 64 31 34 41 36 72
1 35 -13 -14 -35 -26 -49 -26 -27 0 -66 42 -66 71 0 17 8 19 70 19 67 0 70 1
70 23 0 61 -103 92 -148 44z m82 -13 c26 -25 19 -34 -29 -34 -46 0 -58 13 -33
38 17 17 44 15 62 -4z"/>
<path d="M26364 14815 c-4 -9 0 -23 8 -31 20 -20 50 -7 46 20 -4 26 -45 35
-54 11z"/>
<path d="M26372 14661 c-23 -14 -10 -46 18 -46 16 0 26 6 28 19 3 16 -12 36
-28 36 -3 0 -11 -4 -18 -9z"/>
<path d="M21680 13450 l0 -290 310 0 310 0 0 290 0 290 -310 0 -310 0 0 -290z
m600 208 l0 -62 -52 51 -53 51 -125 -118 -124 -118 -54 46 -53 45 -32 -29
c-18 -16 -44 -40 -59 -53 l-28 -24 0 136 0 137 290 0 290 0 0 -62z m-42 -50
l33 -35 -68 -61 c-37 -34 -115 -106 -173 -161 l-105 -99 -70 66 c-38 37 -81
80 -94 95 l-24 29 41 41 41 41 51 -48 52 -48 36 33 c20 19 39 36 42 39 3 4 42
41 88 83 92 85 91 85 150 25z m42 -243 l0 -185 -290 0 -290 0 0 127 0 126 68
-64 c37 -36 87 -84 111 -107 l45 -41 95 89 c53 48 132 122 176 164 44 41 81
75 83 76 1 0 2 -83 2 -185z"/>
<path d="M22792 13593 c-45 -22 -74 -67 -80 -123 -6 -65 13 -115 56 -148 29
-22 46 -27 93 -27 62 0 94 17 133 69 29 39 29 133 0 173 -51 69 -131 91 -202
56z m119 -13 c31 -17 49 -64 49 -130 0 -97 -32 -140 -103 -140 -91 0 -131 166
-61 250 28 32 76 41 115 20z"/>
<path d="M23473 13600 c-47 -19 -57 -87 -19 -125 13 -13 46 -35 74 -49 64 -32
80 -58 57 -92 -31 -47 -113 -24 -141 40 -13 31 -13 30 -13 -29 -1 -36 3 -55 8
-47 7 11 16 11 49 2 53 -17 106 -6 132 27 42 54 22 92 -80 151 -46 26 -66 44
-68 60 -11 76 98 67 132 -11 l14 -32 1 59 c1 49 -1 57 -13 47 -10 -8 -21 -8
-40 -1 -32 12 -63 12 -93 0z"/>
<path d="M24320 13601 c25 -7 25 -9 30 -129 5 -117 6 -123 33 -149 24 -25 35
-28 92 -28 57 0 68 3 92 28 26 26 28 32 33 149 5 120 5 122 30 129 16 5 3 7
-40 8 -59 1 -63 -1 -40 -12 24 -12 25 -15 25 -125 0 -100 -2 -114 -21 -132
-32 -32 -93 -37 -126 -10 -28 21 -28 23 -28 141 0 115 1 120 23 129 16 6 1 9
-53 8 -46 0 -65 -3 -50 -7z"/>
<path d="M23712 13545 c-12 -19 -27 -35 -32 -35 -6 0 -10 -4 -10 -10 0 -5 7
-10 15 -10 12 0 15 -16 15 -83 0 -101 13 -127 56 -112 34 12 42 32 12 31 -22
-1 -23 3 -26 82 -3 82 -3 82 23 82 14 0 25 5 25 10 0 6 -11 10 -24 10 -21 0
-25 5 -28 35 l-3 34 -23 -34z"/>
<path d="M24223 13548 c-12 -21 -27 -38 -33 -38 -5 0 -10 -4 -10 -10 0 -5 7
-10 15 -10 12 0 15 -16 15 -88 0 -90 8 -112 40 -112 20 0 56 37 47 47 -4 3 -7
1 -7 -5 0 -7 -9 -12 -20 -12 -18 0 -20 7 -20 85 0 84 0 85 25 85 14 0 25 5 25
10 0 6 -11 10 -24 10 -21 0 -25 5 -28 38 l-3 37 -22 -37z"/>
<path d="M23065 13495 c-16 -8 -23 -14 -14 -15 18 0 29 -39 29 -99 0 -52 -10
-79 -29 -84 -9 -3 11 -5 44 -6 45 0 56 2 43 10 -15 8 -18 24 -18 85 0 69 2 75
24 86 46 20 56 7 56 -81 0 -66 -3 -82 -17 -90 -14 -8 -3 -10 42 -10 33 0 53 3
45 6 -25 10 -30 25 -30 104 0 61 -4 79 -18 92 -23 21 -46 21 -77 1 -23 -15
-25 -15 -25 0 0 19 -14 19 -55 1z"/>
<path d="M23839 13489 c-22 -22 -21 -42 4 -47 10 -2 17 5 19 20 2 18 9 23 33
23 25 0 31 -4 33 -27 3 -23 -3 -29 -42 -46 -24 -11 -52 -32 -61 -46 -16 -24
-16 -28 -1 -51 19 -29 51 -32 84 -9 20 14 23 14 28 0 9 -22 37 -20 60 5 19 21
19 21 -1 18 -18 -4 -20 2 -23 76 -3 91 -13 105 -74 105 -25 0 -45 -7 -59 -21z
m91 -119 c0 -34 -4 -41 -24 -46 -32 -8 -46 2 -46 31 0 16 9 29 28 39 39 22 42
20 42 -24z"/>
<path d="M24041 13496 c-19 -11 -21 -14 -7 -19 13 -5 16 -22 16 -87 0 -74 -2
-81 -22 -90 -17 -6 -7 -9 42 -9 49 0 59 3 43 9 -21 8 -23 16 -23 75 0 82 12
110 41 94 25 -13 45 1 36 25 -8 21 -36 20 -59 -1 -17 -15 -18 -15 -18 0 0 20
-16 21 -49 3z"/>
<path d="M24675 13495 c-19 -9 -24 -14 -12 -15 15 0 17 -13 17 -139 0 -124 -2
-140 -17 -144 -10 -3 9 -5 42 -5 33 0 52 2 43 5 -14 3 -18 15 -18 54 0 48 1
49 25 43 66 -16 115 34 115 119 0 79 -61 121 -118 81 -20 -14 -22 -14 -22 0 0
19 -15 19 -55 1z m121 -23 c37 -24 46 -118 15 -146 -11 -10 -31 -16 -48 -14
-27 3 -28 4 -31 73 -2 57 0 72 14 82 20 15 34 16 50 5z"/>
<path d="M24060 12100 l0 -320 1060 0 1060 0 0 320 0 320 -1060 0 -1060 0 0
-320z m1560 151 c0 -89 -4 -152 -10 -156 -5 -3 -10 -11 -10 -16 0 -6 5 -7 10
-4 6 4 10 -27 10 -85 0 -69 -3 -91 -12 -87 -9 2 -13 33 -14 101 -1 53 -4 99
-7 103 -4 3 -20 0 -38 -7 -25 -11 -28 -15 -15 -22 13 -7 16 -26 16 -89 0 -73
-2 -80 -22 -89 -18 -7 -10 -9 35 -9 l57 -1 0 -45 0 -45 -770 0 -770 0 0 300 0
300 770 0 770 0 0 -149z m540 -151 l0 -300 -260 0 -260 0 0 300 0 300 260 0
260 0 0 -300z"/>
<path d="M24821 12216 c-19 -11 -21 -14 -7 -19 14 -5 16 -27 16 -146 0 -123
-2 -141 -17 -150 -14 -8 -5 -10 37 -10 42 0 51 2 38 10 -15 8 -18 24 -18 85 0
69 2 75 24 86 47 21 56 7 56 -86 0 -72 -3 -85 -17 -89 -10 -3 9 -5 42 -5 33 0
52 2 43 5 -15 4 -18 16 -18 72 0 124 -37 169 -101 122 l-29 -22 0 81 c0 85 -4
91 -49 66z"/>
<path d="M24280 12190 c-30 -16 -32 -19 -12 -20 22 0 22 -2 22 -130 0 -126 -1
-131 -22 -140 -17 -6 -7 -9 42 -9 49 0 59 3 43 9 -22 9 -23 13 -23 160 0 82
-3 150 -7 150 -5 -1 -24 -9 -43 -20z"/>
<path d="M24479 12181 c-16 -16 -29 -37 -29 -47 0 -13 5 -11 21 10 27 34 81
36 103 4 35 -49 11 -105 -87 -205 l-51 -53 96 0 96 0 11 32 c9 26 9 30 -1 20
-7 -7 -39 -12 -77 -12 l-65 0 41 43 c106 109 121 185 46 225 -37 20 -73 14
-104 -17z"/>
<path d="M25101 12097 c-33 -20 -50 -55 -51 -105 0 -81 75 -126 149 -88 54 28
70 123 28 171 -27 32 -90 42 -126 22z m84 -27 c44 -49 24 -160 -30 -160 -46 0
-80 91 -55 150 15 36 57 41 85 10z"/>
<path d="M25280 12103 c25 -10 30 -25 30 -104 0 -61 4 -79 18 -92 25 -22 55
-21 76 2 17 18 16 19 -16 18 l-33 -2 -3 93 -3 92 -42 -1 c-23 0 -35 -3 -27 -6z"/>
<path d="M25413 12099 c15 -9 17 -24 16 -105 -1 -52 1 -98 4 -101 4 -3 23 2
44 10 21 9 31 16 22 16 -22 1 -29 30 -29 119 l0 72 -37 0 c-31 -1 -35 -2 -20
-11z"/>
<path d="M25703 12229 c26 -46 80 -144 119 -216 40 -73 75 -133 78 -133 5 0
34 51 194 344 l49 89 -34 -20 c-19 -11 -73 -42 -121 -67 l-88 -48 -87 48 c-49
25 -103 56 -122 67 l-34 21 46 -85z m197 -69 c6 0 51 22 101 49 l89 49 -40
-71 c-22 -40 -64 -116 -93 -169 -29 -54 -54 -98 -57 -98 -3 0 -26 40 -52 88
-26 48 -68 124 -92 169 l-45 81 89 -49 c49 -27 94 -49 100 -49z"/>
<path d="M21680 12100 l0 -300 320 0 320 0 0 300 0 300 -320 0 -320 0 0 -300z
m620 0 l0 -280 -300 0 -300 0 0 280 0 280 300 0 300 0 0 -280z"/>
<path d="M22759 12121 c-25 -25 -29 -37 -29 -81 0 -44 4 -56 29 -81 20 -19 40
-29 60 -29 35 0 76 33 86 70 l7 25 -21 -27 c-35 -43 -91 -37 -116 13 -28 54
-23 59 60 59 84 0 95 11 50 55 -35 36 -88 34 -126 -4z m89 -3 c26 -26 13 -38
-38 -38 -54 0 -59 4 -33 32 18 21 53 24 71 6z"/>
<path d="M22941 12137 c9 -7 35 -55 57 -107 22 -52 44 -94 48 -93 5 0 26 43
47 95 21 51 46 99 55 106 13 10 10 12 -24 12 -27 0 -35 -3 -25 -9 12 -8 10
-19 -9 -70 -12 -34 -26 -64 -30 -66 -4 -3 -20 23 -34 57 -26 59 -26 63 -10 75
15 11 10 13 -37 13 -45 -1 -51 -3 -38 -13z"/>
<path d="M23224 12135 c-52 -36 -57 -141 -9 -182 37 -32 80 -30 116 6 16 16
29 37 29 47 0 13 -5 11 -21 -10 -38 -49 -109 -22 -121 47 l-5 27 73 0 c66 0
74 2 74 19 0 48 -91 78 -136 46z m74 -17 c25 -25 13 -38 -33 -38 -30 0 -45 4
-45 13 0 19 21 37 45 37 12 0 26 -5 33 -12z"/>
<path d="M23405 12135 c-20 -9 -24 -14 -12 -14 15 -1 17 -12 17 -86 0 -69 -3
-86 -17 -94 -14 -8 -4 -10 42 -11 57 0 58 1 37 16 -18 13 -22 25 -22 72 0 67
22 111 46 91 18 -15 44 -4 44 18 0 31 32 -14 75 -104 39 -82 39 -83 22 -118
-15 -31 -21 -35 -49 -33 -27 3 -33 -1 -33 -17 0 -30 40 -31 67 -3 13 13 45 77
72 143 27 66 56 128 64 138 14 16 12 17 -24 17 -26 0 -34 -3 -25 -9 16 -10 11
-35 -17 -102 l-19 -44 -33 64 c-31 62 -31 65 -14 78 16 12 8 13 -56 12 -61 -1
-79 -5 -97 -22 l-23 -20 0 21 c0 25 -4 26 -45 7z"/>
<path d="M25818 10448 c-2 -442 -2 -863 0 -935 l3 -133 779 0 780 0 0 935 0
935 -780 0 -780 0 -2 -802z m942 701 c0 -66 -3 -84 -17 -95 -11 -8 -13 -13 -5
-14 7 0 12 -13 12 -33 0 -31 -2 -33 -29 -29 -67 10 -111 -98 -61 -148 22 -22
65 -27 76 -9 14 23 24 -18 24 -103 l0 -88 -460 0 -460 0 0 300 0 300 460 0
460 0 0 -81z m600 -219 l0 -300 -290 0 -290 0 0 300 0 300 290 0 290 0 0 -300z
m-621 26 c7 -8 11 -37 9 -68 -3 -45 -6 -53 -25 -56 -44 -6 -69 71 -37 116 17
25 36 28 53 8z m619 -581 l2 -220 -89 3 -89 3 44 107 c25 59 50 110 57 114 7
4 -3 8 -23 8 -22 0 -30 -3 -22 -8 13 -9 12 -12 -19 -89 l-11 -28 -24 50 c-17
36 -20 53 -12 62 8 10 1 13 -33 13 -32 -1 -40 -3 -28 -10 9 -5 30 -41 48 -80
30 -64 32 -74 21 -101 -11 -25 -17 -29 -36 -25 -12 3 -26 2 -29 -4 -4 -6 -94
-10 -240 -10 l-234 0 45 107 c24 59 50 111 57 115 7 4 -2 8 -23 8 -22 0 -30
-3 -22 -8 13 -9 12 -12 -19 -89 l-11 -28 -24 50 c-17 36 -20 53 -12 62 8 10
-1 13 -49 13 -33 0 -64 -5 -71 -12 -9 -9 -12 -9 -12 1 0 8 -7 10 -22 6 -27 -9
-51 -28 -28 -23 24 5 27 -112 4 -129 -15 -11 -11 -13 31 -13 42 0 46 2 31 13
-13 10 -17 24 -14 67 3 53 4 55 31 53 18 -1 27 3 27 13 0 34 24 9 57 -61 32
-69 34 -78 23 -106 -11 -25 -17 -29 -36 -25 -12 3 -26 2 -29 -4 -4 -6 -138
-10 -371 -10 l-364 0 0 214 c0 196 2 215 18 219 9 3 350 4 757 3 l740 -1 3
-220z m2 -605 l0 -370 -760 0 -760 0 0 115 0 115 29 0 c40 0 54 -17 86 -105
15 -41 29 -74 31 -73 1 2 11 26 22 53 l20 50 15 -35 c8 -19 17 -44 22 -55 6
-16 12 -7 31 45 43 118 40 115 124 118 99 4 120 -2 120 -33 0 -19 -5 -25 -22
-25 -12 0 -30 -7 -40 -17 -21 -19 -24 -76 -5 -90 6 -6 50 -11 97 -11 46 0 78
3 71 7 -20 13 -10 85 13 89 16 3 18 -2 15 -47 -4 -51 -4 -51 26 -50 17 0 24 3
18 6 -8 3 -13 23 -13 48 0 52 -21 75 -51 57 -13 -8 -19 -9 -19 -1 0 6 -8 9
-17 7 -14 -2 -17 -13 -14 -56 3 -55 2 -56 -23 -46 -13 5 -16 22 -16 85 l0 79
219 0 c121 0 226 -3 235 -6 9 -3 16 -17 16 -30 0 -18 -5 -24 -22 -24 -32 0
-58 -29 -58 -65 0 -52 19 -59 120 -46 2 1 -1 6 -8 13 -7 7 -12 42 -12 85 l0
73 245 2 c153 2 246 7 248 13 1 6 -54 11 -147 13 -140 2 -148 4 -134 20 8 9
30 55 48 102 18 47 40 93 48 103 14 16 13 17 -19 17 -23 0 -30 -3 -20 -9 11
-7 11 -16 -4 -55 -10 -25 -21 -46 -25 -46 -8 0 -40 66 -40 85 0 7 6 16 13 18
6 3 -6 6 -29 6 l-41 1 41 -79 c35 -69 39 -83 30 -108 -7 -21 -16 -27 -32 -26
-13 2 -25 -4 -28 -12 -5 -13 -81 -15 -585 -15 l-579 0 0 235 0 235 758 3 c416
1 758 3 760 5 1 1 2 -164 2 -368z m-1355 -160 c17 -19 17 -24 4 -67 l-15 -47
-21 54 c-14 38 -18 59 -11 68 14 17 22 15 43 -8z m102 12 c10 -6 9 -20 -4 -60
-9 -29 -20 -52 -23 -52 -3 0 -14 23 -24 51 -16 43 -17 53 -5 60 17 11 40 11
56 1z m231 -110 c3 -35 0 -42 -15 -42 -38 0 -58 51 -31 78 24 24 43 9 46 -36z
m490 0 c3 -35 0 -42 -15 -42 -38 0 -58 51 -31 78 24 24 43 9 46 -36z"/>
<path d="M25943 11049 c14 -8 17 -26 17 -115 0 -99 -1 -105 -22 -114 -18 -7
-13 -9 27 -9 39 0 46 2 33 10 -15 8 -18 24 -17 97 l1 87 25 -55 c14 -30 34
-75 45 -100 l20 -45 48 100 48 100 1 -87 c1 -73 -2 -89 -16 -97 -14 -8 -5 -10
37 -10 42 0 51 2 38 10 -15 8 -18 25 -18 114 0 88 3 106 18 115 14 8 9 10 -21
8 -38 -3 -39 -3 -80 -97 l-42 -95 -44 97 c-45 96 -45 97 -81 97 -28 -1 -32 -2
-17 -11z"/>
<path d="M26295 10957 c-73 -62 3 -181 87 -136 25 13 50 72 41 96 -21 61 -82
80 -128 40z m61 5 c34 -22 45 -99 18 -126 -17 -18 -24 -19 -40 -8 -34 22 -45
99 -18 126 17 18 24 19 40 8z"/>
<path d="M26463 10970 c-25 -10 -31 -22 -10 -17 8 1 13 -17 15 -58 3 -47 0
-62 -14 -72 -15 -11 -11 -13 32 -12 27 1 41 3 32 6 -15 4 -18 16 -18 63 0 49
3 61 20 70 11 6 25 8 30 5 15 -9 13 -132 -2 -138 -7 -3 7 -5 32 -5 25 0 39 2
33 5 -8 3 -13 24 -13 56 0 29 -3 62 -6 75 -9 30 -49 40 -74 17 -18 -16 -20
-17 -20 -2 0 19 -5 20 -37 7z"/>
<path d="M26964 10897 l111 -229 108 222 c60 122 107 224 105 225 -2 2 -50
-25 -108 -60 l-105 -64 -35 22 c-19 11 -69 42 -111 67 l-76 47 111 -230z m44
111 c34 -21 64 -38 67 -38 3 0 33 17 67 38 118 73 117 80 22 -110 -47 -95 -87
-174 -88 -175 -1 -1 -41 77 -89 173 -96 192 -97 184 21 112z"/>
<path d="M26870 10468 c-21 -9 -22 -12 -7 -15 12 -3 17 -14 17 -37 0 -30 -2
-32 -33 -28 -40 5 -75 -29 -83 -79 -10 -61 49 -109 96 -79 9 6 17 5 21 -2 4
-7 14 -6 30 3 15 7 19 14 11 17 -9 3 -12 36 -12 118 0 63 -3 114 -7 113 -5 0
-19 -5 -33 -11z m-6 -104 c22 -21 22 -110 0 -118 -24 -9 -31 -8 -48 10 -31 30
-13 124 24 124 5 0 16 -7 24 -16z"/>
<path d="M25972 10383 c-7 -3 -19 -18 -28 -35 -42 -81 45 -169 106 -108 25 25
27 49 2 27 -25 -22 -48 -21 -72 3 -36 36 -26 50 35 50 47 0 55 3 55 18 0 38
-54 63 -98 45z m46 -15 c23 -23 13 -38 -23 -38 -38 0 -44 10 -19 34 19 19 26
20 42 4z"/>
<path d="M26103 10373 c8 -10 28 -48 43 -85 15 -38 30 -68 33 -68 3 0 19 32
35 71 16 39 35 77 43 85 12 12 10 14 -19 13 -18 0 -27 -3 -20 -6 16 -6 15 -13
-9 -68 l-21 -48 -19 43 c-22 49 -24 66 -6 73 6 3 -8 6 -32 6 -41 1 -43 0 -28
-16z"/>
<path d="M26312 10367 c-46 -49 -17 -147 43 -147 28 0 61 25 68 51 l6 21 -20
-21 c-20 -21 -45 -27 -65 -13 -11 7 -34 45 -34 56 0 3 27 6 60 6 33 0 60 4 60
9 0 4 -9 20 -21 35 -26 33 -68 34 -97 3z m62 -3 c25 -25 19 -34 -25 -34 -40 0
-42 4 -16 38 13 16 22 15 41 -4z"/>
<path d="M26966 10371 c-10 -11 -15 -25 -11 -30 11 -18 25 -12 35 15 12 31 44
29 48 -2 2 -15 -5 -25 -27 -33 -59 -25 -78 -70 -39 -95 13 -8 23 -8 38 2 16
10 24 10 40 0 16 -11 23 -10 37 5 14 15 15 18 3 15 -12 -2 -16 10 -18 57 -2
32 -8 65 -14 72 -16 20 -72 16 -92 -6z m59 -117 c-9 -7 -23 -10 -31 -7 -23 9
-16 41 14 57 26 14 27 13 30 -12 2 -16 -3 -31 -13 -38z"/>
<path d="M26750 9975 c-19 -11 -21 -14 -7 -15 13 0 17 -8 17 -34 0 -30 -2 -33
-25 -28 -57 11 -110 -69 -83 -125 16 -34 61 -52 88 -35 12 7 20 8 22 1 2 -6
12 -7 27 -1 16 6 20 11 13 16 -8 5 -12 45 -12 122 0 63 -3 114 -7 114 -5 -1
-19 -7 -33 -15z m-6 -98 c25 -18 19 -120 -7 -125 -48 -9 -77 79 -40 120 19 21
24 22 47 5z"/>
<path d="M25931 9948 c0 -30 1 -31 9 -10 7 16 18 22 40 22 l30 0 0 -109 c0
-96 -2 -110 -17 -114 -10 -3 9 -5 42 -5 45 -1 54 1 38 8 -22 9 -23 15 -23 115
l0 105 33 0 c25 0 37 -6 45 -22 10 -22 11 -21 11 10 l1 32 -105 0 -105 0 1
-32z"/>
<path d="M26143 9893 c13 -4 17 -15 17 -58 0 -96 33 -132 82 -88 17 15 18 15
18 -1 0 -13 5 -16 23 -11 26 9 50 28 27 23 -12 -2 -16 11 -18 70 l-3 72 -32
-1 c-18 -1 -24 -3 -14 -6 14 -4 17 -16 17 -63 0 -51 -3 -61 -22 -71 -31 -17
-48 11 -48 83 l0 58 -32 -1 c-18 -1 -25 -3 -15 -6z"/>
<path d="M26362 9877 c-46 -49 -17 -147 43 -147 27 0 65 27 65 46 0 14 -2 14
-16 0 -29 -30 -75 -13 -89 32 -6 21 -4 22 54 22 34 0 61 4 61 9 0 4 -9 20 -21
35 -26 33 -68 34 -97 3z m62 -3 c25 -25 19 -34 -25 -34 -40 0 -42 4 -16 38 13
16 22 15 41 -4z"/>
<path d="M26516 9878 c-19 -27 -8 -49 39 -77 24 -14 35 -27 33 -38 -6 -30 -40
-28 -65 3 l-23 29 0 -32 c0 -32 1 -33 43 -33 48 0 81 25 75 57 -2 10 -22 28
-46 41 -44 24 -54 48 -25 59 10 4 24 -3 40 -21 l23 -27 0 30 c0 29 -2 31 -39
31 -29 0 -44 -6 -55 -22z"/>
<path d="M26858 9889 c-22 -12 -24 -49 -4 -49 8 0 16 10 18 23 4 30 42 30 46
1 2 -17 -6 -26 -34 -40 -21 -11 -42 -27 -48 -36 -23 -38 36 -76 71 -46 13 10
17 10 20 1 6 -18 28 -16 44 4 8 9 9 14 3 10 -8 -5 -13 13 -16 59 -3 42 -9 69
-19 75 -19 12 -60 11 -81 -2z m62 -93 c0 -41 -27 -57 -48 -29 -11 16 -10 21
13 41 14 12 28 22 31 22 2 0 4 -15 4 -34z"/>
<path d="M26157 9552 c-22 -24 -21 -65 1 -85 26 -24 59 -21 73 6 9 18 9 20 -2
10 -18 -17 -34 -16 -53 3 -25 25 -19 34 24 34 41 0 52 14 28 38 -18 18 -53 15
-71 -6z m51 -9 c2 -8 -6 -13 -22 -13 -25 0 -33 10 -19 24 10 10 36 3 41 -11z"/>
<path d="M26545 9556 c-22 -16 -25 -67 -5 -91 19 -23 60 -15 79 15 l15 25 -22
-20 c-25 -21 -54 -12 -60 19 -3 13 5 16 37 16 44 0 50 9 25 34 -19 20 -44 20
-69 2z m53 -13 c2 -8 -6 -13 -22 -13 -25 0 -33 10 -19 24 10 10 36 3 41 -11z"/>
<path d="M26650 9550 c-9 -18 -6 -23 25 -41 19 -12 35 -25 35 -30 0 -19 -31
-21 -50 -4 -19 17 -20 17 -20 -4 0 -19 5 -22 36 -19 46 4 69 34 40 52 -10 6
-28 19 -40 28 -20 16 -20 17 -2 24 13 5 23 1 32 -11 13 -18 14 -18 14 3 0 18
-6 22 -30 22 -19 0 -33 -7 -40 -20z"/>
<path d="M26891 9556 c-8 -10 -9 -16 -1 -21 5 -3 13 1 16 9 8 20 30 21 37 2 3
-8 -8 -19 -30 -30 -26 -12 -34 -22 -31 -39 3 -19 9 -22 52 -22 33 0 51 5 54
14 3 8 0 11 -6 7 -7 -4 -12 10 -14 41 -3 46 -5 48 -34 51 -18 2 -36 -3 -43
-12z m59 -56 c0 -24 -27 -37 -43 -21 -8 8 -6 15 9 26 26 20 34 19 34 -5z"/>
<path d="M27002 9553 c32 -36 50 -85 44 -117 -9 -46 8 -21 42 62 27 65 28 72
12 72 -13 0 -17 -6 -13 -19 3 -10 -1 -29 -7 -42 -13 -23 -13 -23 -30 12 -13
25 -15 36 -7 41 7 4 -3 8 -22 8 -32 0 -33 -1 -19 -17z"/>
<path d="M21690 10920 l0 -320 330 0 330 0 0 320 0 320 -330 0 -330 0 0 -320z
m640 0 l0 -300 -310 0 -310 0 0 300 0 300 310 0 310 0 0 -300z"/>
<path d="M22821 11106 c-15 -8 -19 -15 -12 -17 7 -3 15 -26 18 -51 l5 -46 -39
5 c-32 4 -45 0 -71 -22 -57 -48 -62 -126 -10 -170 32 -27 58 -31 90 -14 15 8
22 8 28 0 5 -8 16 -7 41 3 19 9 26 15 17 16 -16 0 -18 14 -18 155 0 165 -1
168 -49 141z m-6 -150 c21 -32 17 -125 -6 -139 -42 -26 -89 19 -89 86 0 69 62
103 95 53z"/>
<path d="M23805 11096 c-13 -13 -27 -40 -30 -60 -5 -26 -12 -36 -26 -36 -11 0
-19 -4 -19 -10 0 -5 9 -10 20 -10 19 0 20 -7 20 -90 0 -85 -1 -91 -22 -100
-17 -6 -5 -9 47 -9 63 -1 67 1 45 12 -23 12 -25 18 -28 100 l-3 87 31 0 c16 0
30 5 30 10 0 6 -13 10 -30 10 -27 0 -30 3 -30 34 0 68 24 85 66 45 23 -22 44
-19 44 6 0 38 -80 46 -115 11z"/>
<path d="M24155 11105 c-17 -8 -23 -14 -14 -15 24 0 29 -29 29 -160 0 -117 -4
-133 -30 -143 -8 -3 12 -6 45 -6 45 0 56 2 43 10 -15 8 -18 24 -18 83 0 80 11
100 52 94 22 -3 23 -8 26 -83 2 -66 0 -82 -14 -92 -15 -11 -9 -13 42 -12 32 0
52 3 44 6 -25 10 -30 25 -30 104 0 61 -4 79 -18 92 -23 21 -46 21 -77 1 l-25
-16 0 76 c0 82 -2 85 -55 61z"/>
<path d="M25505 11106 c-24 -10 -26 -13 -12 -19 15 -6 17 -23 17 -146 0 -123
-2 -141 -17 -150 -14 -8 -3 -10 42 -10 46 0 55 2 38 9 -20 8 -23 17 -23 61 l0
52 35 -44 c20 -25 34 -52 31 -61 -4 -16 3 -18 52 -17 43 0 52 2 35 9 -12 5
-42 35 -67 67 l-45 57 22 24 c12 14 40 33 62 43 l40 19 -54 0 c-44 0 -51 -2
-42 -14 9 -11 4 -21 -26 -47 l-38 -33 -3 107 c-1 59 -6 107 -10 107 -4 -1 -20
-7 -37 -14z"/>
<path d="M24042 11035 c-12 -19 -27 -35 -32 -35 -6 0 -10 -4 -10 -10 0 -5 7
-10 15 -10 12 0 15 -17 15 -89 0 -66 4 -92 15 -101 20 -17 62 -5 76 23 11 20
11 21 -4 8 -35 -28 -47 -7 -47 79 0 79 0 80 25 80 14 0 25 5 25 10 0 6 -11 10
-24 10 -21 0 -25 5 -28 35 l-3 34 -23 -34z"/>
<path d="M22940 10973 c-13 -17 -17 -30 -11 -36 15 -15 41 0 41 23 0 32 48 27
60 -6 13 -34 15 -31 -24 -44 -53 -17 -86 -47 -86 -79 0 -50 43 -67 89 -35 22
16 24 16 33 0 12 -22 31 -20 53 4 17 18 17 20 2 14 -15 -5 -17 3 -17 70 0 92
-17 116 -79 116 -31 0 -44 -6 -61 -27z m100 -108 c0 -28 -5 -38 -24 -47 -33
-15 -56 -4 -56 26 0 17 9 30 28 40 42 23 52 20 52 -19z"/>
<path d="M23124 10989 c10 -6 38 -54 63 -105 l45 -95 -19 -32 c-15 -24 -26
-32 -49 -32 -22 0 -29 -5 -29 -20 0 -11 8 -21 18 -23 38 -8 63 25 111 145 26
65 57 130 67 146 l20 27 -38 -1 c-21 0 -32 -3 -25 -6 18 -7 15 -23 -14 -89
l-26 -59 -29 55 c-33 64 -36 87 -11 93 9 3 -10 5 -43 6 -48 0 -56 -2 -41 -10z"/>
<path d="M23524 10966 c-40 -40 -46 -92 -14 -143 22 -36 54 -48 104 -39 87 16
111 139 39 196 -40 32 -89 26 -129 -14z m92 6 c20 -13 34 -50 34 -92 0 -54
-15 -80 -45 -80 -62 0 -97 112 -53 168 11 13 47 16 64 4z"/>
<path d="M24427 10980 c-30 -24 -49 -79 -40 -121 3 -16 19 -41 35 -54 49 -41
104 -30 134 26 19 38 13 49 -10 14 -32 -49 -110 -23 -122 43 l-6 32 76 0 c75
0 77 1 71 23 -16 55 -89 75 -138 37z m83 -19 c15 -30 14 -31 -40 -31 -52 0
-60 8 -34 34 21 22 61 20 74 -3z"/>
<path d="M24718 10982 c9 -9 33 -59 52 -110 19 -50 37 -92 40 -92 4 0 20 30
36 68 l30 67 26 -65 c14 -36 29 -65 33 -65 4 0 24 41 44 91 20 50 42 99 50
108 12 14 10 16 -25 16 -31 -1 -35 -3 -22 -11 16 -9 16 -13 -4 -67 -12 -31
-24 -61 -28 -65 -7 -8 -50 94 -50 118 0 8 8 16 18 18 9 3 -10 5 -43 6 -45 0
-56 -2 -43 -10 36 -20 39 -44 15 -100 -26 -57 -23 -59 -57 37 -13 38 -15 55
-7 63 8 8 -2 11 -36 11 -45 0 -46 -1 -29 -18z"/>
<path d="M25101 10974 c-74 -62 -36 -194 56 -194 33 0 83 45 83 74 -1 21 -1
21 -12 1 -15 -27 -28 -35 -60 -35 -31 0 -68 41 -68 76 0 23 3 24 75 24 67 0
74 2 68 18 -22 64 -89 81 -142 36z m77 -6 c25 -25 13 -38 -33 -38 -30 0 -45 4
-45 13 0 19 21 37 45 37 12 0 26 -5 33 -12z"/>
<path d="M25309 10971 c-25 -25 -29 -37 -29 -81 0 -44 4 -56 29 -81 20 -19 40
-29 60 -29 35 0 76 33 86 70 l7 25 -21 -27 c-37 -47 -100 -34 -120 23 -6 18
-11 36 -11 40 0 5 34 9 75 9 84 0 95 11 50 55 -35 36 -88 34 -126 -4z m89 -3
c26 -26 13 -38 -38 -38 -54 0 -59 4 -33 32 18 21 53 24 71 6z"/>
<path d="M24910 9025 l0 -245 565 0 565 0 0 245 0 245 -565 0 -565 0 0 -245z
m740 0 l0 -225 -360 0 -360 0 0 225 0 225 360 0 360 0 0 -225z m370 196 c0
-27 -8 -34 -86 -77 l-86 -47 -89 44 c-85 41 -89 45 -89 76 l0 33 175 0 175 0
0 -29z m-258 -217 l84 -141 83 144 c45 79 85 143 87 143 2 0 4 -79 4 -175 l0
-175 -175 0 -175 0 0 177 c0 97 2 174 4 172 2 -2 42 -67 88 -145z m147 103
c34 19 64 33 66 31 4 -4 -110 -204 -125 -221 -4 -4 -32 34 -62 85 -91 153 -90
144 -10 104 l68 -34 63 35z"/>
<path d="M25065 9090 c-17 -34 -13 -50 14 -50 23 0 41 -20 41 -46 0 -31 -24
-48 -49 -35 -19 11 -37 1 -24 -13 13 -13 54 -5 74 15 28 28 22 68 -17 94 -36
25 -33 45 7 45 16 0 29 5 29 10 0 6 -13 10 -30 10 -23 0 -33 -7 -45 -30z"/>
<path d="M25271 9039 c-19 -44 -42 -84 -50 -89 -12 -7 -7 -9 19 -10 23 0 30 3
21 9 -10 7 -11 13 -2 30 16 30 77 30 86 0 5 -14 2 -25 -6 -30 -9 -5 16 -8 61
-8 41 0 69 3 63 6 -9 3 -13 26 -12 66 l1 62 33 -70 33 -70 35 75 35 75 1 -62
c1 -49 -3 -64 -16 -72 -14 -8 -8 -10 27 -10 25 0 39 3 33 6 -9 3 -13 30 -13
83 0 53 4 80 13 83 6 3 -1 6 -16 6 -25 1 -31 -6 -58 -64 -16 -36 -31 -65 -34
-65 -3 0 -18 29 -34 65 -27 58 -33 65 -58 64 -15 0 -22 -3 -15 -6 8 -3 12 -30
12 -84 0 -73 -2 -79 -20 -79 -16 0 -30 19 -60 85 -21 47 -40 85 -42 85 -2 0
-18 -36 -37 -81z m59 -21 c0 -5 -14 -8 -30 -8 l-31 0 17 32 16 32 14 -25 c7
-13 13 -27 14 -31z"/>
<path d="M22790 9010 l0 -230 618 2 617 3 2 228 2 227 -619 0 -620 0 0 -230z
m824 173 c-1 -24 -2 -119 -3 -213 l-1 -170 -405 0 -405 0 0 215 0 215 407 -2
408 -3 -1 -42z m396 -168 l0 -215 -190 0 -190 0 0 215 0 215 190 0 190 0 0
-215z"/>
<path d="M22901 9096 c-19 -11 -21 -14 -7 -19 24 -10 23 -152 -1 -166 -14 -8
-9 -10 26 -11 38 0 42 2 28 13 -13 9 -17 32 -19 104 l-3 91 -24 -12z"/>
<path d="M23121 9033 c-18 -43 -41 -90 -52 -105 l-20 -28 32 0 c24 0 29 3 21
13 -6 7 -6 21 -1 35 7 18 16 22 48 22 34 0 40 -3 45 -27 5 -17 3 -29 -6 -34
-8 -6 3 -9 30 -9 l43 0 -19 25 c-11 13 -34 61 -52 105 -18 44 -33 80 -35 80
-1 0 -17 -35 -34 -77z m47 -23 c11 -29 10 -30 -19 -30 -32 0 -35 7 -18 44 14
30 23 27 37 -14z"/>
<path d="M23279 9101 c21 -13 20 -179 0 -192 -10 -6 -1 -9 26 -9 32 1 36 3 23
11 -15 8 -18 24 -17 82 0 79 -4 82 50 -38 l27 -60 26 60 c57 131 55 129 55 48
1 -52 -3 -76 -15 -87 -14 -15 -11 -16 28 -16 34 1 39 3 26 11 -15 8 -18 25
-18 94 0 69 3 86 18 94 14 9 12 10 -14 11 -29 0 -32 -4 -64 -81 l-33 -81 -34
72 c-18 40 -33 77 -33 81 0 5 -15 9 -32 9 -24 0 -29 -3 -19 -9z"/>
<path d="M23704 9073 c28 -59 66 -137 83 -173 l30 -65 82 164 c45 90 81 165
78 167 -2 2 -36 -17 -75 -41 -40 -25 -77 -45 -82 -45 -5 0 -40 19 -77 43 -38
24 -73 46 -80 50 -7 4 12 -41 41 -100z m175 21 c32 20 61 36 65 36 3 0 -23
-59 -59 -131 l-66 -130 -55 113 c-85 171 -84 165 -9 117 l65 -41 59 36z"/>
<path d="M22057 9123 c-8 -10 -18 -30 -22 -45 -4 -15 -14 -29 -23 -31 -15 -4
-15 -5 1 -6 14 -1 17 -11 17 -66 0 -50 -4 -66 -17 -74 -14 -8 -5 -10 37 -10
43 0 50 2 33 9 -21 8 -23 16 -23 74 0 59 2 65 23 69 l22 4 -22 2 c-18 1 -23 7
-23 30 0 40 24 59 48 37 23 -20 32 -20 32 -2 0 29 -59 35 -83 9z"/>
<path d="M24372 9081 c-12 -17 -18 -31 -13 -31 6 0 11 -33 13 -72 3 -70 4 -73
27 -73 13 0 26 6 29 13 2 7 -2 10 -12 6 -14 -5 -16 4 -16 59 0 54 3 66 18 70
15 4 15 5 0 6 -10 1 -18 11 -20 27 l-3 26 -23 -31z"/>
<path d="M24475 9035 c-31 -30 -32 -73 -4 -109 41 -52 129 -16 129 54 0 38
-39 80 -75 80 -14 0 -37 -11 -50 -25z m65 5 c35 -19 38 -111 5 -124 -48 -18
-89 79 -49 118 18 19 20 19 44 6z"/>
<path d="M22125 9040 c-11 -5 -14 -9 -7 -9 8 -1 12 -21 12 -65 0 -42 -4 -66
-12 -69 -7 -3 7 -6 32 -6 35 0 41 2 28 10 -13 7 -18 23 -18 59 0 50 11 67 43
62 10 -2 17 3 17 12 0 21 -19 20 -42 -1 -17 -15 -18 -15 -18 0 0 19 -5 20 -35
7z"/>
<path d="M22261 9033 c-12 -10 -24 -35 -27 -55 -12 -74 80 -119 125 -62 59 75
-26 176 -98 117z m69 -13 c28 -28 28 -95 -1 -111 -18 -9 -25 -7 -41 9 -23 23
-28 83 -9 106 18 21 27 20 51 -4z"/>
<path d="M22425 9044 c-6 -2 -9 -32 -7 -70 3 -48 0 -69 -10 -75 -8 -6 3 -9 32
-9 35 1 41 3 28 11 -28 16 -25 104 3 119 36 20 49 6 49 -54 0 -42 -4 -57 -17
-65 -14 -8 -8 -10 27 -10 25 0 39 3 33 6 -8 3 -13 25 -13 59 0 31 -5 64 -10
75 -13 23 -47 25 -72 2 -17 -15 -18 -15 -18 0 0 17 -6 19 -25 11z"/>
<path d="M22564 9035 c-18 -13 -17 -14 11 -12 30 2 30 2 33 -57 2 -41 -1 -62
-10 -67 -8 -5 4 -9 32 -9 35 1 41 3 28 11 -14 8 -18 23 -18 67 0 78 -28 103
-76 67z"/>
<path d="M22697 9044 c-9 -10 4 -34 19 -34 8 0 14 9 14 20 0 19 -19 27 -33 14z"/>
<path d="M22696 8915 c-3 -9 1 -18 10 -22 19 -7 28 2 21 22 -8 19 -23 19 -31
0z"/>
<path d="M205 14106 c-60 -28 -97 -66 -124 -126 -20 -43 -21 -63 -21 -530 0
-467 1 -487 21 -530 27 -60 64 -98 124 -126 l50 -24 2385 0 2385 0 50 24 c60
28 97 66 124 126 20 43 21 64 21 530 l0 485 -24 51 c-27 59 -90 116 -145 132
-29 9 -641 12 -2417 12 l-2379 0 -50 -24z m4870 -23 c46 -24 75 -54 101 -103
18 -33 19 -66 19 -531 l0 -496 -30 -49 c-34 -54 -78 -88 -134 -104 -24 -6
-845 -10 -2396 -10 -1946 1 -2367 3 -2398 14 -54 20 -104 61 -130 109 -22 42
-22 43 -22 538 l0 496 30 48 c17 26 42 57 56 67 67 50 -65 47 2484 45 l2380
-2 40 -22z"/>
<path d="M3532 13848 c-7 -7 -12 -24 -12 -38 0 -31 17 -50 45 -50 28 0 45 19
45 50 0 31 -17 50 -45 50 -12 0 -26 -5 -33 -12z"/>
<path d="M480 13823 c-134 -46 -220 -173 -220 -323 0 -171 116 -305 275 -318
118 -9 209 30 269 116 16 24 27 45 24 47 -3 3 -29 -19 -59 -49 -96 -95 -221
-103 -318 -19 -61 52 -84 123 -79 248 6 161 58 246 167 275 47 12 110 6 153
-16 34 -18 85 -80 99 -121 15 -46 33 -43 25 5 -3 20 -6 62 -6 92 0 73 -12 92
-37 61 l-19 -23 -61 21 c-73 25 -150 26 -213 4z"/>
<path d="M3272 13708 c-18 -32 -48 -68 -67 -80 -43 -28 -44 -38 -5 -38 l30 0
0 -152 c0 -167 9 -219 43 -243 43 -30 109 -8 138 47 14 26 4 35 -16 14 -26
-26 -64 -20 -76 10 -5 15 -8 92 -7 173 l3 146 48 3 c33 2 47 7 47 18 0 10 -13
14 -50 14 l-49 0 -3 73 -3 72 -33 -57z"/>
<path d="M1030 13614 c-50 -22 -79 -52 -106 -109 -67 -142 13 -309 155 -323
93 -9 167 35 207 123 87 186 -79 386 -256 309z m111 -30 c50 -25 79 -101 79
-204 0 -67 -4 -92 -20 -118 -38 -63 -109 -65 -158 -6 -38 46 -54 102 -53 186
1 128 65 188 152 142z"/>
<path d="M1413 13603 c-35 -14 -61 -29 -58 -34 3 -4 12 -6 20 -2 9 3 22 0 30
-7 12 -10 15 -43 15 -169 0 -162 -4 -181 -42 -181 -10 0 -18 -4 -18 -10 0 -6
42 -10 105 -10 63 0 105 4 105 10 0 6 -11 10 -25 10 -14 0 -29 8 -35 19 -5 11
-10 81 -10 155 l0 135 37 26 c37 25 86 32 111 17 22 -15 32 -74 32 -195 0
-130 -8 -157 -45 -157 -14 0 -25 -4 -25 -10 0 -6 42 -10 105 -10 63 0 105 4
105 10 0 6 -8 10 -18 10 -36 0 -42 20 -42 147 0 156 -12 215 -52 248 -49 41
-114 28 -185 -38 l-23 -20 0 41 c0 50 -3 50 -87 15z"/>
<path d="M1893 13603 c-35 -14 -61 -29 -58 -34 3 -4 12 -6 20 -2 9 3 22 0 30
-7 12 -10 15 -43 15 -169 0 -162 -4 -181 -42 -181 -10 0 -18 -4 -18 -10 0 -6
42 -10 105 -10 63 0 105 4 105 10 0 6 -11 10 -25 10 -14 0 -29 8 -35 19 -5 11
-10 81 -10 155 l0 135 37 26 c37 25 86 32 111 17 22 -15 32 -74 32 -195 0
-130 -8 -157 -45 -157 -14 0 -25 -4 -25 -10 0 -6 42 -10 105 -10 63 0 105 4
105 10 0 6 -8 10 -18 10 -36 0 -42 20 -42 147 0 156 -12 215 -52 248 -49 41
-114 28 -185 -38 l-23 -20 0 41 c0 50 -3 50 -87 15z"/>
<path d="M2450 13608 c-177 -91 -130 -411 62 -425 38 -3 63 1 88 14 42 22 100
105 99 142 0 24 -1 25 -12 6 -7 -11 -26 -34 -44 -52 -25 -27 -39 -33 -72 -33
-81 0 -146 59 -157 143 l-7 47 147 0 146 0 0 34 c0 37 -31 89 -72 119 -42 31
-123 34 -178 5z m128 -44 c12 -14 22 -38 22 -55 l0 -29 -95 0 c-105 0 -109 3
-80 60 32 62 109 74 153 24z"/>
<path d="M2879 13607 c-85 -45 -129 -150 -109 -259 37 -191 256 -227 336 -55
29 63 20 83 -12 29 -27 -46 -95 -79 -136 -67 -91 27 -143 157 -104 260 40 102
141 117 166 24 12 -44 27 -54 64 -45 33 8 40 33 19 69 -40 67 -142 87 -224 44z"/>
<path d="M3513 13603 c-34 -14 -60 -30 -57 -35 3 -4 10 -6 15 -3 5 4 18 3 29
0 19 -6 20 -15 20 -169 0 -167 -4 -186 -42 -186 -10 0 -18 -4 -18 -10 0 -6 42
-10 105 -10 101 0 137 11 76 23 -38 8 -41 28 -41 243 0 133 -3 174 -12 173 -7
0 -41 -12 -75 -26z"/>
<path d="M3861 13619 c-83 -33 -135 -117 -135 -219 0 -238 290 -305 388 -90
40 89 21 205 -46 267 -50 47 -146 66 -207 42z m113 -40 c50 -40 70 -94 71
-194 0 -108 -16 -147 -70 -165 -82 -27 -151 54 -162 190 -4 53 -2 81 11 115
28 71 96 96 150 54z"/>
<path d="M4240 13605 c-57 -24 -82 -51 -36 -39 38 9 46 -23 46 -176 0 -148 -8
-180 -45 -180 -14 0 -25 -4 -25 -10 0 -6 44 -10 111 -10 71 0 108 4 104 10 -3
6 -14 10 -24 10 -37 0 -42 22 -39 171 l3 143 34 23 c44 30 95 30 115 1 13 -18
16 -52 16 -168 0 -155 -4 -170 -47 -170 -13 0 -23 -4 -23 -10 0 -6 44 -10 111
-10 71 0 108 4 104 10 -3 6 -15 10 -25 10 -10 0 -22 6 -27 13 -4 6 -10 85 -13
174 -4 143 -7 165 -26 189 -42 57 -120 56 -185 -3 l-39 -35 0 41 c0 49 -9 50
-90 16z"/>
<path d="M4758 13614 c-36 -19 -58 -63 -58 -114 0 -51 19 -72 122 -128 43 -23
82 -51 88 -61 40 -75 -47 -130 -127 -81 -32 19 -63 66 -63 95 0 8 -4 15 -10
15 -6 0 -10 -31 -10 -73 l0 -74 33 0 c17 0 57 -4 88 -8 101 -14 178 49 166
138 -7 52 -31 76 -130 125 -78 39 -107 67 -107 102 0 24 41 50 79 50 48 0 86
-28 101 -75 18 -55 30 -41 30 35 0 68 -5 81 -26 60 -6 -6 -22 -6 -44 0 -49 14
-100 12 -132 -6z"/>
<path d="M2442 11168 c-7 -7 -12 -24 -12 -38 0 -30 16 -50 41 -50 23 0 49 27
49 50 0 39 -52 64 -78 38z"/>
<path d="M2690 11155 c-57 -24 -82 -51 -37 -40 19 5 28 2 36 -13 14 -26 15
-510 1 -546 -6 -16 -17 -26 -30 -26 -11 0 -20 -4 -20 -10 0 -6 42 -10 105 -10
63 0 105 4 105 10 0 6 -10 10 -23 10 -46 0 -47 6 -47 337 0 356 8 329 -90 288z"/>
<path d="M1810 11140 c0 -5 13 -10 28 -10 16 0 37 -6 48 -14 18 -14 19 -29 19
-286 0 -257 -1 -272 -19 -286 -11 -8 -32 -14 -48 -14 -15 0 -28 -4 -28 -10 0
-6 53 -10 140 -10 87 0 140 4 140 10 0 6 -12 10 -26 10 -14 0 -34 5 -45 10
-17 10 -19 22 -19 145 l0 135 75 0 c84 0 115 -18 115 -65 0 -14 5 -25 10 -25
6 0 10 43 10 110 0 67 -4 110 -10 110 -5 0 -10 -9 -10 -20 0 -12 -11 -32 -25
-45 -21 -22 -33 -25 -95 -25 l-70 0 0 125 0 125 104 0 c116 0 149 -14 161 -70
12 -53 25 -32 25 40 l0 70 -240 0 c-153 0 -240 -4 -240 -10z"/>
<path d="M2423 10923 c-35 -14 -61 -29 -58 -34 3 -4 12 -6 20 -2 9 3 22 0 30
-7 12 -10 15 -43 15 -169 0 -162 -4 -181 -42 -181 -10 0 -18 -4 -18 -10 0 -6
42 -10 105 -10 58 0 105 2 105 6 0 3 -13 10 -29 15 -16 6 -32 20 -35 32 -3 12
-6 104 -6 205 0 139 -3 182 -12 182 -7 -1 -41 -12 -75 -27z"/>
<path d="M3009 10927 c-109 -58 -143 -234 -66 -348 58 -87 182 -104 255 -36
31 28 62 90 61 119 0 22 -1 22 -12 3 -7 -11 -26 -34 -44 -52 -26 -28 -38 -33
-76 -33 -29 0 -55 8 -78 23 -38 25 -79 97 -79 139 l0 27 148 3 147 3 -3 30
c-13 119 -141 181 -253 122z m95 -17 c28 -10 50 -41 60 -82 l6 -28 -100 0
c-62 0 -100 4 -100 10 0 31 31 78 61 93 40 20 41 20 73 7z"/>
<path d="M2924 8225 c-10 -25 4 -45 30 -45 25 0 44 30 31 50 -10 15 -55 12
-61 -5z"/>
<path d="M3850 8225 c-10 -12 -10 -18 0 -30 20 -25 55 -15 55 15 0 30 -35 40
-55 15z"/>
<path d="M815 8198 c-15 -12 -34 -37 -42 -55 -23 -56 4 -97 99 -154 43 -25 87
-54 98 -64 26 -23 25 -60 -1 -86 -18 -18 -30 -20 -70 -17 -56 6 -83 26 -101
74 -19 53 -28 40 -28 -36 0 -68 5 -81 26 -60 6 6 22 6 44 0 50 -14 117 -12
150 5 41 21 60 53 60 101 0 52 -23 78 -116 129 -116 64 -136 93 -93 136 45 45
159 1 159 -61 0 -42 18 -27 22 18 5 69 -1 96 -17 82 -9 -7 -21 -7 -39 0 -48
18 -120 12 -151 -12z"/>
<path d="M3688 8143 c-10 -17 -29 -40 -43 -51 -30 -24 -32 -37 -7 -37 15 0 18
-15 22 -123 5 -132 9 -142 62 -142 17 0 34 10 47 27 25 31 21 40 -9 21 -36
-22 -50 10 -50 118 l0 93 32 3 c45 4 49 28 4 28 -35 0 -35 0 -38 48 l-3 47
-17 -32z"/>
<path d="M1102 8057 c14 -12 51 -75 82 -140 l55 -118 -20 -46 c-19 -44 -21
-45 -55 -40 -43 7 -64 0 -64 -22 0 -47 65 -55 106 -13 16 16 54 95 95 197 38
94 76 175 84 181 25 19 17 24 -37 24 -46 -1 -51 -2 -35 -14 22 -17 22 -18 -15
-110 l-31 -79 -38 74 c-41 80 -47 109 -24 109 8 0 15 5 15 10 0 6 -31 10 -72
10 l-73 0 27 -23z"/>
<path d="M1443 8064 c-35 -15 -44 -33 -15 -30 15 1 17 -11 20 -111 3 -112 1
-119 -30 -114 -5 0 -8 -3 -8 -9 0 -6 32 -10 75 -10 41 0 75 2 75 5 0 3 -11 10
-25 15 -24 9 -25 13 -25 99 0 85 1 91 26 110 30 24 54 27 72 9 15 -15 17 -217
2 -219 -5 -1 -14 -2 -19 -3 -5 0 -13 -4 -17 -8 -4 -5 27 -8 69 -8 73 0 101 11
57 23 -18 5 -20 14 -20 110 0 90 -3 108 -21 131 -25 32 -75 35 -112 6 -14 -11
-28 -20 -31 -20 -3 0 -6 9 -6 20 0 24 -20 25 -67 4z"/>
<path d="M1825 8070 c-45 -18 -85 -84 -85 -138 1 -45 36 -109 69 -126 42 -22
93 -20 125 5 26 20 56 68 56 89 0 18 -16 11 -30 -14 -15 -29 -60 -50 -88 -42
-58 19 -90 113 -58 174 29 55 86 53 100 -4 5 -20 12 -25 34 -22 38 4 41 39 6
67 -28 22 -90 28 -129 11z"/>
<path d="M2048 8063 c-36 -14 -56 -42 -21 -29 26 10 33 -12 33 -117 0 -97 0
-98 -27 -109 -28 -12 -28 -12 14 -16 24 -2 62 -2 85 0 43 4 43 4 16 16 -28 11
-28 13 -28 100 0 107 13 133 56 114 23 -11 30 -11 43 3 12 12 13 19 5 33 -17
26 -53 27 -80 1 l-24 -22 0 21 c0 26 -19 28 -72 5z"/>
<path d="M2325 8070 c-46 -19 -85 -83 -85 -141 0 -43 35 -106 70 -124 47 -24
113 -20 150 11 111 94 61 266 -77 263 -21 0 -47 -4 -58 -9z m87 -29 c44 -35
60 -124 34 -186 -13 -30 -20 -35 -49 -35 -42 0 -71 30 -87 88 -14 56 -4 107
27 132 32 25 44 25 75 1z"/>
<path d="M2575 8060 c-38 -18 -39 -21 -5 -24 12 -1 16 -22 18 -108 l3 -107
-28 -15 c-27 -15 -25 -15 55 -16 53 0 81 4 77 10 -3 6 -15 10 -26 10 -18 0
-19 8 -19 100 l0 99 30 16 c37 19 45 19 64 -1 12 -12 16 -37 16 -110 0 -92 -1
-95 -25 -104 -14 -5 -25 -12 -25 -15 0 -3 34 -5 75 -5 70 0 99 11 56 23 -17 4
-19 17 -22 115 -4 91 -8 114 -23 131 -24 27 -69 27 -112 0 l-34 -21 0 21 c0
26 -21 26 -75 1z"/>
<path d="M2918 8063 c-21 -8 -38 -19 -38 -24 0 -4 6 -6 14 -3 21 8 26 -7 32
-92 6 -96 -1 -130 -29 -140 -18 -6 -14 -8 21 -11 23 -2 59 -3 80 -1 31 3 34 5
17 13 -11 5 -23 13 -27 19 -4 6 -8 66 -8 134 0 134 1 132 -62 105z"/>
<path d="M3070 8040 c0 -44 14 -54 24 -16 5 21 12 25 62 28 31 1 60 1 64 -2 4
-3 -32 -59 -81 -125 -49 -66 -89 -123 -89 -127 0 -5 59 -8 130 -8 l130 0 0 45
c0 51 -14 60 -23 15 -7 -35 -29 -43 -106 -38 l-53 3 96 129 c53 71 96 131 96
133 0 1 -56 3 -125 3 l-125 0 0 -40z"/>
<path d="M3386 8059 c-35 -27 -38 -82 -4 -77 15 2 24 13 30 35 13 51 72 56 84
7 9 -36 0 -49 -45 -62 -48 -15 -111 -71 -111 -99 0 -11 9 -32 21 -47 25 -32
75 -35 112 -6 l26 21 11 -21 c15 -27 52 -25 80 5 24 26 21 47 -3 27 -23 -19
-27 -3 -27 97 0 53 -4 101 -8 107 -25 39 -124 46 -166 13z m114 -157 c0 -43
-3 -50 -26 -61 -75 -34 -100 54 -26 93 45 25 52 21 52 -32z"/>
<path d="M3835 8060 c-38 -18 -39 -21 -5 -24 12 -1 16 -22 18 -108 l3 -107
-28 -15 c-27 -15 -25 -15 52 -15 76 0 79 1 58 16 -22 15 -23 22 -23 144 0 145
1 144 -75 109z"/>
<path d="M4055 8062 c-40 -25 -51 -39 -66 -89 -26 -90 38 -183 127 -183 93 0
144 54 144 153 0 51 -4 61 -33 94 -29 31 -41 37 -88 40 -41 3 -61 0 -84 -15z
m94 -18 c46 -33 67 -137 38 -194 -10 -20 -20 -25 -51 -25 -55 0 -79 34 -84
119 -4 59 -2 67 21 90 30 30 44 32 76 10z"/>
<path d="M4323 8064 c-35 -15 -44 -33 -15 -30 15 1 17 -11 20 -111 3 -112 1
-119 -30 -114 -5 0 -8 -3 -8 -9 0 -6 32 -10 75 -10 41 0 75 2 75 5 0 3 -11 10
-25 15 -24 9 -25 13 -25 99 0 85 1 91 26 110 30 24 54 27 72 9 15 -15 17 -217
2 -219 -5 -1 -14 -2 -19 -3 -5 0 -13 -4 -17 -8 -4 -5 27 -8 69 -8 73 0 101 11
57 23 -18 5 -20 14 -20 110 0 90 -3 108 -21 131 -25 32 -75 35 -112 6 -14 -11
-28 -20 -31 -20 -3 0 -6 9 -6 20 0 24 -20 25 -67 4z"/>
<path d="M205 5946 c-60 -28 -97 -66 -124 -126 -20 -44 -21 -63 -21 -670 0
-607 1 -626 21 -670 27 -60 64 -98 124 -126 l50 -24 2385 0 2385 0 50 24 c60
28 97 66 124 126 20 44 21 63 21 670 l0 625 -24 51 c-27 59 -90 116 -145 132
-29 9 -641 12 -2417 12 l-2379 0 -50 -24z m4870 -23 c46 -24 75 -54 101 -103
18 -33 19 -69 19 -671 l0 -636 -30 -49 c-34 -54 -78 -88 -134 -104 -24 -6
-845 -10 -2396 -10 -1946 1 -2367 3 -2398 14 -54 20 -104 61 -130 109 l-22 42
0 636 0 636 30 48 c17 26 42 57 56 67 67 50 -65 47 2484 45 l2380 -2 40 -22z"/>
<path d="M2638 5523 c-26 -30 -5 -83 33 -83 23 0 49 26 49 50 0 43 -54 65 -82
33z"/>
<path d="M1192 5499 c-63 -32 -87 -71 -87 -145 0 -76 25 -112 119 -169 168
-101 187 -115 202 -150 12 -30 12 -40 0 -69 -20 -48 -51 -66 -114 -66 -95 0
-158 48 -181 138 -20 72 -31 48 -31 -68 0 -102 10 -138 25 -90 8 25 18 25 91
-1 117 -41 228 -11 279 75 34 58 33 110 -3 167 -24 36 -50 56 -150 113 -135
77 -159 97 -168 144 -6 27 -1 37 29 67 29 29 42 35 76 35 85 0 151 -52 172
-136 6 -24 15 -44 20 -44 5 0 9 50 9 110 0 61 -3 110 -6 110 -3 0 -14 -10 -23
-21 l-17 -22 -58 22 c-72 27 -129 27 -184 0z"/>
<path d="M2112 5388 c-18 -32 -48 -68 -67 -80 -43 -28 -44 -38 -5 -38 l30 0 0
-152 c0 -167 9 -219 43 -243 43 -30 109 -8 138 47 14 26 4 35 -16 14 -26 -26
-64 -20 -76 10 -5 15 -8 92 -7 173 l3 146 48 3 c33 2 47 7 47 18 0 10 -13 14
-50 14 l-49 0 -3 73 -3 72 -33 -57z"/>
<path d="M2385 5399 c-10 -22 -41 -60 -68 -85 l-49 -44 35 0 36 0 3 -181 3
-181 29 -25 c24 -20 36 -24 65 -19 34 5 91 53 91 76 0 15 -16 12 -30 -5 -18
-21 -57 -19 -70 4 -6 11 -10 87 -10 175 l0 156 50 0 c38 0 50 4 50 15 0 11
-12 15 -50 15 l-50 0 0 70 c0 39 -4 70 -8 70 -5 0 -17 -18 -27 -41z"/>
<path d="M1725 5292 c-50 -23 -91 -70 -105 -120 -16 -58 -12 -152 9 -197 49
-110 177 -148 266 -81 48 37 97 146 65 146 -5 0 -10 -6 -10 -14 0 -8 -16 -31
-35 -52 -33 -35 -37 -36 -90 -32 -44 4 -62 11 -86 34 -37 34 -59 81 -59 124
l0 30 146 0 147 0 -6 42 c-15 109 -136 169 -242 120z m88 -23 c33 -17 57 -51
57 -81 l0 -28 -95 0 c-89 0 -95 1 -95 20 0 28 28 68 59 85 32 17 46 18 74 4z"/>
<path d="M2623 5283 c-35 -14 -61 -29 -58 -34 3 -4 12 -6 20 -2 9 3 22 0 30
-7 12 -10 15 -43 15 -169 0 -162 -4 -181 -42 -181 -10 0 -18 -4 -18 -10 0 -6
42 -10 106 -10 67 0 103 4 99 10 -3 6 -15 10 -25 10 -34 0 -40 33 -40 229 0
146 -3 191 -12 191 -7 -1 -41 -12 -75 -27z"/>
<path d="M2863 5283 c-35 -14 -60 -29 -57 -34 3 -5 10 -7 15 -4 5 4 18 3 29 0
19 -6 20 -15 20 -169 0 -167 -4 -186 -42 -186 -10 0 -18 -4 -18 -10 0 -6 42
-10 105 -10 63 0 105 4 105 10 0 6 -11 10 -25 10 -37 0 -45 32 -45 174 0 122
0 122 29 150 35 34 96 45 126 23 18 -14 20 -29 23 -160 4 -159 -3 -187 -43
-187 -14 0 -25 -4 -25 -10 0 -6 42 -10 105 -10 63 0 105 4 105 10 0 6 -8 10
-18 10 -37 0 -42 19 -42 167 0 108 -4 152 -16 183 -34 86 -131 93 -203 16 -33
-35 -41 -33 -41 14 0 47 -3 48 -87 13z"/>
<path d="M3435 5296 c-42 -18 -83 -69 -91 -112 -9 -50 11 -108 46 -136 l30
-24 -35 -34 c-40 -39 -47 -82 -16 -102 19 -11 18 -14 -20 -61 -55 -69 -53 -98
9 -134 42 -25 56 -28 137 -28 73 0 98 4 130 22 86 46 126 117 100 179 -20 47
-55 61 -181 69 -133 8 -145 13 -124 52 15 26 19 28 75 25 112 -6 191 60 182
153 -2 22 -7 48 -11 58 -7 15 -2 17 33 17 34 0 41 3 41 20 0 18 -7 20 -59 20
-32 0 -75 7 -94 15 -44 18 -112 19 -152 1z m100 -18 c32 -15 51 -48 60 -109
14 -91 -41 -156 -107 -128 -76 31 -88 201 -18 236 31 16 33 16 65 1z m114
-427 c46 -9 61 -33 41 -69 -23 -41 -74 -62 -150 -62 -84 0 -136 15 -156 45
-15 22 -14 27 6 63 l22 39 101 -5 c56 -2 117 -7 136 -11z"/>
<path d="M3859 5287 c-21 -14 -39 -38 -48 -63 -13 -37 -12 -44 5 -80 15 -31
36 -49 106 -88 107 -61 130 -99 88 -144 -48 -51 -141 -15 -174 68 -24 60 -36
49 -36 -34 l0 -74 38 0 c20 1 62 -3 93 -7 42 -6 62 -4 85 8 73 38 99 104 67
166 -14 27 -40 47 -113 86 -71 39 -97 59 -105 79 -18 52 33 88 102 70 31 -7
42 -17 63 -56 14 -27 28 -48 33 -48 4 0 7 32 7 70 0 68 -5 81 -26 60 -6 -6
-22 -6 -44 0 -57 16 -104 12 -141 -13z"/>
<path d="M21247 5799 c-158 -37 -300 -181 -336 -340 -14 -61 -14 -3717 0
-3778 37 -162 178 -303 340 -340 61 -14 6117 -14 6178 0 162 37 303 178 340
340 14 61 14 3717 0 3778 -37 162 -178 303 -340 340 -56 13 -6127 13 -6182 0z
m6226 -36 c117 -44 216 -142 260 -259 l22 -59 3 -1835 c2 -1302 0 -1854 -8
-1899 -31 -180 -166 -317 -344 -350 -84 -15 -6048 -16 -6132 0 -174 32 -311
169 -343 343 -15 84 -15 3648 0 3732 32 176 162 306 344 344 22 4 1413 7 3090
6 l3050 -1 58 -22z"/>
<path d="M21675 5242 c-28 -16 -29 -17 -7 -20 22 -3 22 -6 22 -139 0 -118 -2
-138 -17 -149 -16 -12 -10 -13 42 -14 57 0 58 1 37 16 -19 13 -22 24 -22 78 0
68 20 101 57 94 15 -3 18 -15 21 -83 2 -66 0 -82 -14 -92 -15 -11 -9 -13 42
-13 45 1 55 3 42 11 -15 8 -18 24 -18 93 0 68 -3 86 -18 99 -23 21 -56 22 -87
1 l-25 -16 0 76 c0 83 -4 87 -55 58z"/>
<path d="M23048 5248 c-29 -10 -38 -28 -14 -28 16 0 26 -21 26 -58 0 -26 -2
-27 -43 -24 -51 4 -90 -25 -105 -82 -12 -43 -5 -76 25 -110 24 -27 73 -35 103
-16 9 6 17 5 21 -2 5 -7 16 -7 35 -1 28 9 48 36 22 31 -10 -2 -14 28 -16 150
-3 162 -2 160 -54 140z m-4 -150 c19 -27 21 -119 4 -136 -19 -19 -55 -14 -72
10 -9 12 -16 42 -16 67 0 72 50 107 84 59z"/>
<path d="M23177 5247 c-8 -21 8 -39 29 -35 27 5 25 42 -2 46 -12 2 -24 -3 -27
-11z"/>
<path d="M26804 5245 c-8 -20 4 -35 27 -35 14 0 19 7 19 25 0 18 -5 25 -20 25
-11 0 -23 -7 -26 -15z"/>
<path d="M21432 5223 c-49 -24 -75 -68 -80 -133 -7 -99 42 -160 133 -168 64
-5 107 9 135 46 28 35 16 41 -18 10 -37 -36 -87 -44 -132 -21 -49 25 -61 55
-58 137 4 63 7 71 36 97 49 44 94 40 144 -11 l38 -41 0 51 c0 46 -10 63 -25
40 -4 -6 -15 -6 -31 0 -38 15 -105 12 -142 -7z"/>
<path d="M23906 5185 c-11 -16 -29 -37 -40 -47 l-21 -17 23 -1 c21 0 22 -4 22
-88 0 -55 4 -92 12 -100 19 -19 55 -14 72 10 18 25 13 36 -8 19 -27 -22 -36
-2 -36 80 0 78 0 79 25 79 14 0 25 5 25 10 0 6 -11 10 -24 10 -21 0 -25 5 -28
37 l-3 37 -19 -29z"/>
<path d="M24792 5175 c-12 -19 -27 -35 -32 -35 -6 0 -10 -4 -10 -10 0 -5 7
-10 15 -10 12 0 15 -16 15 -88 0 -55 4 -92 12 -100 18 -18 53 -15 71 6 19 21
23 42 5 24 -30 -30 -38 -13 -38 73 0 84 0 85 25 85 14 0 25 5 25 10 0 6 -11
10 -25 10 -22 0 -25 4 -25 35 0 44 -9 44 -38 0z"/>
<path d="M21944 5117 c-22 -19 -28 -34 -32 -80 -4 -52 -2 -58 26 -87 52 -52
132 -38 167 30 27 52 14 109 -35 147 -27 21 -96 16 -126 -10z m102 -22 c25
-38 30 -100 10 -130 -37 -57 -96 -8 -96 79 0 29 5 57 12 64 20 20 56 14 74
-13z"/>
<path d="M22184 5117 c-22 -19 -28 -34 -32 -80 -4 -52 -2 -58 26 -87 52 -52
132 -38 167 30 27 52 14 109 -35 147 -27 21 -96 16 -126 -10z m102 -22 c25
-38 30 -100 10 -130 -37 -57 -96 -8 -96 79 0 29 5 57 12 64 20 20 56 14 74
-13z"/>
<path d="M22404 5115 c-25 -39 -12 -68 46 -99 40 -22 50 -32 48 -49 -5 -33
-50 -35 -76 -3 -27 34 -32 33 -32 -9 l0 -36 61 3 c53 3 65 7 81 29 27 35 10
67 -50 99 -32 17 -47 31 -47 45 0 30 56 28 70 -2 14 -33 25 -28 25 12 l0 35
-55 0 c-47 0 -57 -3 -71 -25z"/>
<path d="M22612 5115 c-37 -31 -47 -83 -26 -133 19 -45 41 -61 86 -62 28 0 42
7 62 31 34 41 36 72 1 35 -13 -14 -33 -26 -45 -26 -27 0 -70 43 -70 70 0 18 6
20 70 20 67 0 70 1 70 23 0 62 -93 89 -148 42z m80 -12 c28 -25 22 -33 -27
-33 -46 0 -58 13 -33 38 17 17 38 15 60 -5z"/>
<path d="M23173 5130 c-24 -10 -32 -32 -10 -27 8 1 13 -20 15 -77 2 -66 0 -80
-15 -92 -16 -12 -11 -13 42 -13 46 0 56 2 43 10 -15 8 -18 25 -18 109 0 108
-2 112 -57 90z"/>
<path d="M23293 5128 c-24 -12 -32 -30 -10 -25 8 1 13 -20 15 -77 2 -66 0 -80
-15 -92 -16 -12 -11 -13 42 -13 53 0 58 1 42 13 -15 12 -17 26 -15 87 l3 74
35 0 c28 0 35 4 35 20 0 24 -38 33 -61 15 -10 -9 -14 -9 -14 -1 0 14 -28 13
-57 -1z"/>
<path d="M23484 5125 c-31 -21 -47 -69 -41 -118 13 -97 129 -121 173 -36 20
40 10 50 -17 16 -35 -46 -100 -26 -115 35 l-6 27 74 3 c71 3 73 4 70 28 -5 53
-89 80 -138 45z m74 -17 c25 -25 13 -38 -33 -38 -49 0 -53 4 -28 32 19 21 44
23 61 6z"/>
<path d="M23687 5114 c-67 -66 -32 -194 53 -194 42 0 67 15 86 51 20 40 12 46
-19 15 -32 -32 -60 -33 -87 -4 -23 25 -27 94 -7 122 18 25 61 18 65 -11 4 -30
52 -33 52 -5 0 54 -98 72 -143 26z"/>
<path d="M24047 5129 c-43 -25 -60 -106 -32 -159 19 -37 43 -50 93 -50 94 0
137 129 65 196 -28 26 -92 33 -126 13z m92 -35 c15 -19 21 -41 21 -75 0 -51
-18 -79 -51 -79 -43 0 -76 109 -49 161 15 27 55 24 79 -7z"/>
<path d="M24253 5128 c-24 -12 -32 -30 -10 -25 8 1 13 -20 15 -77 2 -66 0 -80
-15 -92 -16 -12 -11 -13 42 -13 53 0 58 1 42 13 -15 12 -17 26 -15 87 l3 74
33 -3 c22 -1 35 3 38 13 12 30 26 13 70 -81 l45 -96 -19 -31 c-15 -27 -23 -32
-51 -29 -29 3 -32 1 -29 -20 4 -33 47 -36 76 -5 12 13 45 79 72 148 28 68 58
130 67 137 14 10 10 12 -28 11 -24 0 -38 -3 -31 -6 6 -2 12 -10 12 -17 0 -20
-42 -116 -50 -116 -8 0 -50 96 -50 116 0 7 6 15 13 17 6 3 -24 6 -68 6 -51 1
-86 -4 -93 -11 -9 -9 -12 -9 -12 0 0 15 -27 15 -57 0z"/>
<path d="M24931 5114 c-77 -64 -36 -194 61 -194 22 0 48 5 59 10 28 15 49 63
49 110 0 89 -100 132 -169 74z m104 -24 c20 -38 20 -123 0 -140 -40 -33 -95
25 -95 101 0 67 66 94 95 39z"/>
<path d="M25277 5122 c-33 -37 -22 -68 38 -107 55 -34 69 -60 40 -71 -25 -10
-67 6 -72 26 -9 32 -23 23 -23 -15 l0 -35 55 0 c62 0 95 22 95 63 0 28 -19 47
-78 76 -49 25 -54 54 -11 59 19 2 33 -4 47 -22 26 -34 32 -33 32 7 l0 34 -53
2 c-41 1 -58 -3 -70 -17z"/>
<path d="M25437 5122 c12 -9 41 -57 63 -105 l41 -89 -19 -31 c-15 -27 -23 -31
-51 -29 -29 3 -32 1 -29 -20 4 -33 47 -36 75 -6 12 13 45 80 73 148 29 69 59
131 68 138 13 10 9 12 -29 11 -24 0 -38 -3 -31 -6 6 -2 12 -10 12 -17 0 -20
-42 -116 -50 -116 -8 0 -50 96 -50 116 0 7 6 15 13 17 6 3 -15 6 -48 6 -59 1
-60 0 -38 -17z"/>
<path d="M25693 5128 c-24 -12 -32 -30 -10 -25 8 1 13 -21 15 -78 2 -66 0 -82
-14 -92 -15 -11 -9 -13 42 -13 45 1 55 3 42 11 -15 8 -18 24 -18 85 0 69 2 75
25 86 41 19 55 -3 55 -87 0 -65 -2 -73 -22 -83 -19 -9 -12 -11 42 -11 61 -1
63 0 42 15 -19 13 -22 24 -22 90 0 42 -5 84 -10 95 -13 24 -66 26 -92 2 -17
-15 -18 -15 -18 0 0 19 -24 21 -57 5z"/>
<path d="M25967 5129 c-26 -15 -47 -63 -47 -109 0 -86 95 -132 154 -74 14 15
26 36 26 47 0 18 -2 18 -25 -7 -40 -44 -87 -30 -106 33 -15 51 4 95 43 99 22
3 29 -2 34 -22 4 -17 13 -26 25 -26 28 0 35 27 14 50 -20 22 -87 27 -118 9z"/>
<path d="M26143 5128 c-24 -12 -32 -30 -10 -25 8 1 13 -21 15 -78 2 -66 0 -82
-14 -92 -15 -11 -8 -13 47 -12 53 0 60 2 42 11 -20 10 -23 19 -23 74 0 87 5
96 47 88 32 -6 34 -5 31 17 -4 29 -39 37 -62 14 -14 -15 -16 -15 -16 -1 0 18
-25 20 -57 4z"/>
<path d="M26338 5120 c-55 -42 -61 -123 -13 -174 18 -20 34 -26 65 -26 23 0
50 5 61 10 28 15 49 63 49 110 0 83 -97 131 -162 80z m97 -30 c20 -38 20 -123
0 -140 -39 -32 -95 25 -95 97 0 69 66 99 95 43z"/>
<path d="M26543 5128 c-24 -12 -32 -30 -10 -25 8 1 13 -21 15 -78 2 -66 0 -82
-14 -92 -15 -11 -9 -13 42 -13 45 1 55 3 42 11 -15 8 -18 24 -18 83 0 69 1 73
26 85 42 19 54 1 54 -85 0 -59 -3 -75 -17 -83 -14 -8 -4 -10 41 -11 50 0 57 2
44 13 -12 9 -17 35 -20 94 -3 46 -10 89 -18 97 -16 20 -59 20 -88 0 -20 -14
-22 -14 -22 0 0 18 -25 20 -57 4z"/>
<path d="M26793 5128 c-25 -12 -32 -34 -8 -24 24 9 22 -159 -2 -173 -14 -8 -4
-10 42 -10 46 0 56 2 43 10 -15 8 -18 25 -18 109 0 108 -4 114 -57 88z"/>
<path d="M26910 5110 c0 -34 15 -40 23 -10 4 16 14 20 51 20 25 0 46 -2 46 -5
0 -3 -29 -44 -65 -92 -36 -49 -65 -91 -65 -95 0 -5 42 -8 94 -8 l94 0 4 35 c5
40 -7 47 -16 10 -6 -23 -11 -25 -62 -25 -44 0 -54 3 -47 13 55 72 103 137 118
160 l17 27 -96 0 -96 0 0 -30z"/>
<path d="M27164 5125 c-31 -21 -47 -69 -41 -118 13 -97 129 -121 173 -36 20
40 10 50 -17 16 -35 -46 -100 -26 -115 36 l-6 27 77 0 77 0 -6 28 c-4 15 -16
35 -28 45 -25 21 -86 22 -114 2z m74 -17 c25 -25 13 -38 -33 -38 -49 0 -53 4
-28 32 19 21 44 23 61 6z"/>
<path d="M23931 4706 c-12 -13 -24 -40 -28 -60 -4 -26 -11 -36 -24 -36 -11 0
-19 -4 -19 -10 0 -5 9 -10 20 -10 18 0 20 -7 20 -88 0 -82 -2 -90 -22 -100
-19 -9 -9 -11 52 -10 46 0 65 3 50 7 -24 7 -25 10 -28 99 l-3 92 26 0 c14 0
25 5 25 10 0 6 -11 10 -25 10 -23 0 -25 4 -25 45 0 55 20 68 54 36 20 -19 29
-21 57 -13 41 10 48 45 12 50 -14 2 -23 -2 -23 -9 0 -10 -3 -10 -12 -1 -21 21
-82 14 -107 -12z"/>
<path d="M24178 4718 c-30 -10 -38 -28 -13 -28 13 0 15 -22 15 -140 0 -122 -2
-140 -17 -149 -14 -8 -4 -10 42 -10 46 0 56 2 43 10 -16 9 -18 28 -18 169 0
172 1 168 -52 148z"/>
<path d="M24043 4598 c-24 -12 -32 -30 -10 -25 8 1 13 -21 15 -78 2 -66 0 -82
-14 -92 -15 -11 -9 -13 42 -13 45 1 55 3 42 11 -15 8 -18 25 -18 109 0 108 -4
114 -57 88z"/>
<path d="M24319 4581 c-25 -25 -29 -37 -29 -81 0 -44 4 -56 29 -81 38 -38 91
-40 126 -4 14 13 25 34 25 46 0 21 -1 21 -21 -5 -12 -15 -30 -26 -45 -26 -30
0 -74 41 -74 70 0 18 6 20 68 20 38 0 71 3 75 6 9 9 -11 56 -31 70 -9 8 -34
14 -55 14 -29 0 -45 -7 -68 -29z m89 -3 c25 -25 13 -38 -33 -38 -33 0 -45 4
-45 15 0 29 56 45 78 23z"/>
<path d="M24534 4602 c-41 -27 -33 -83 17 -110 55 -30 71 -46 64 -65 -10 -26
-52 -21 -80 9 l-25 27 0 -37 0 -36 55 0 c116 0 130 84 24 135 -51 24 -61 58
-19 63 17 3 31 -4 47 -25 l23 -28 0 38 0 37 -47 0 c-27 0 -53 -4 -59 -8z"/>
<path d="M24713 4594 c-3 -8 2 -23 11 -32 15 -15 17 -15 32 0 21 21 11 48 -16
48 -11 0 -23 -7 -27 -16z"/>
<path d="M24725 4437 c-23 -17 -14 -47 15 -47 26 0 37 27 18 46 -12 12 -17 12
-33 1z"/>
<path d="M21390 3740 l0 -300 1510 0 1510 0 0 300 0 300 -1510 0 -1510 0 0
-300z m3000 0 l0 -280 -1490 0 -1490 0 0 280 0 280 1490 0 1490 0 0 -280z"/>
<path d="M22884 3845 c-11 -8 -14 -15 -6 -15 7 0 12 -13 12 -33 0 -31 -2 -33
-29 -29 -67 10 -111 -98 -61 -148 22 -22 60 -26 78 -8 9 9 12 9 12 -1 0 -14
38 -6 55 12 7 7 6 8 -1 4 -19 -11 -24 18 -24 129 0 57 -4 104 -8 104 -5 0 -17
-7 -28 -15z m-5 -99 c7 -8 11 -37 9 -68 -3 -45 -6 -53 -25 -56 -44 -6 -69 71
-37 116 17 25 36 28 53 8z"/>
<path d="M22990 3840 c0 -11 7 -20 15 -20 8 0 15 9 15 20 0 11 -7 20 -15 20
-8 0 -15 -9 -15 -20z"/>
<path d="M21553 3839 c14 -8 17 -25 17 -114 0 -89 -3 -106 -17 -114 -13 -8 5
-10 70 -11 80 0 90 2 112 25 31 31 32 69 2 91 -22 17 -22 19 -5 36 24 24 23
44 -7 73 -22 23 -32 25 -107 25 -61 -1 -78 -3 -65 -11z m144 -20 c34 -29 1
-79 -53 -79 -33 0 -34 1 -34 43 0 24 3 47 7 51 10 10 62 -1 80 -15z m-23 -99
c76 -29 34 -130 -45 -105 -16 5 -19 16 -19 61 0 59 9 65 64 44z"/>
<path d="M23561 3813 c0 -7 -10 -22 -21 -33 -11 -11 -16 -20 -10 -20 5 0 10
-32 12 -71 2 -55 7 -74 20 -83 14 -8 21 -7 34 6 15 15 15 16 -2 15 -17 -2 -19
7 -22 65 -3 62 -1 67 20 71 22 4 22 4 1 6 -16 1 -23 9 -26 29 -2 15 -5 21 -6
15z"/>
<path d="M21806 3761 c-14 -5 -16 -10 -8 -15 7 -4 12 -32 12 -66 0 -46 -4 -61
-17 -69 -14 -8 -7 -10 32 -10 40 0 46 2 32 10 -15 9 -18 22 -17 67 3 101 4 98
-34 83z"/>
<path d="M21861 3756 c-9 -11 -7 -15 11 -19 12 -4 25 -1 29 5 17 27 -19 39
-40 14z"/>
<path d="M21945 3745 c-52 -51 -17 -145 54 -145 20 0 37 9 55 31 30 35 32 58
11 98 -24 48 -81 56 -120 16z m76 -6 c26 -26 24 -106 -3 -123 -43 -26 -89 84
-53 124 23 25 30 25 56 -1z"/>
<path d="M22102 3758 c8 -7 28 -45 43 -85 15 -40 31 -70 35 -68 3 2 15 22 25
45 10 22 21 40 25 40 4 0 13 -18 20 -41 8 -22 17 -42 21 -44 4 -3 21 31 39 75
17 43 37 81 43 84 7 2 -4 5 -23 5 -24 0 -31 -2 -21 -8 11 -7 11 -16 -4 -55
-10 -25 -21 -43 -26 -40 -5 2 -14 23 -21 45 -10 34 -9 42 3 50 10 6 0 9 -30 9
-42 0 -43 -1 -28 -18 21 -23 21 -35 1 -75 l-17 -32 -20 54 c-17 45 -18 54 -6
62 9 6 0 9 -30 9 -38 0 -42 -2 -29 -12z"/>
<path d="M22395 3754 c-25 -26 -14 -57 27 -79 41 -22 50 -35 38 -55 -12 -19
-55 -5 -68 22 -10 22 -11 21 -11 -9 -1 -32 1 -33 37 -33 82 0 96 54 27 101
-45 31 -52 54 -15 54 16 0 29 -8 37 -25 l13 -25 0 30 c0 28 -3 31 -34 33 -21
2 -40 -4 -51 -14z"/>
<path d="M22545 3745 c-49 -48 -17 -145 48 -145 25 0 67 37 67 60 0 9 -6 6
-16 -8 -8 -12 -23 -22 -32 -22 -27 0 -62 29 -62 51 0 16 7 19 55 19 60 0 67 9
39 48 -21 30 -68 29 -99 -3z m63 3 c23 -23 13 -38 -23 -38 -39 0 -48 21 -17
39 22 13 26 13 40 -1z"/>
<path d="M22986 3761 c-14 -5 -16 -10 -8 -15 7 -4 12 -32 12 -66 0 -46 -4 -61
-17 -69 -14 -8 -7 -10 32 -10 39 0 46 2 33 10 -15 8 -18 24 -18 84 0 41 -3 75
-7 74 -5 0 -17 -4 -27 -8z"/>
<path d="M23083 3760 c-25 -10 -31 -22 -10 -17 8 1 13 -17 15 -58 3 -47 0 -62
-14 -72 -15 -11 -11 -13 31 -13 42 0 46 2 31 13 -13 10 -17 24 -14 67 3 53 4
55 31 53 21 -1 27 3 27 18 0 22 -29 26 -48 7 -9 -9 -12 -9 -12 0 0 14 -6 14
-37 2z"/>
<path d="M23220 3750 c-27 -27 -35 -65 -20 -101 21 -51 74 -65 110 -29 25 25
27 49 2 27 -25 -22 -48 -21 -72 3 -36 36 -26 50 35 50 47 0 55 3 55 18 0 47
-73 69 -110 32z m54 4 c9 -3 16 -15 16 -25 0 -15 -7 -19 -35 -19 -38 0 -44 10
-19 34 18 18 17 18 38 10z"/>
<path d="M23385 3745 c-49 -48 -18 -145 45 -145 28 0 70 38 70 64 0 6 -7 0
-16 -12 -32 -46 -94 -13 -94 50 0 26 22 58 40 58 5 0 16 -10 24 -21 10 -14 21
-19 32 -15 16 6 16 8 -1 26 -25 28 -70 25 -100 -5z"/>
<path d="M23655 3745 c-52 -51 -17 -145 54 -145 20 0 37 9 55 31 30 35 32 58
11 98 -24 48 -81 56 -120 16z m75 -5 c29 -29 28 -105 -1 -120 -45 -25 -88 65
-55 115 20 30 30 31 56 5z"/>
<path d="M23826 3761 c-14 -5 -16 -10 -8 -15 17 -10 16 -133 0 -139 -7 -3 6
-6 30 -6 40 -1 42 0 27 16 -12 11 -16 31 -15 67 4 91 4 92 -34 77z"/>
<path d="M23880 3755 c-8 -9 -4 -14 12 -19 15 -3 27 0 34 9 9 12 13 13 22 2
24 -28 70 -140 65 -156 -11 -29 -26 -42 -44 -36 -21 7 -36 -12 -20 -28 7 -7
17 -7 34 0 18 8 34 37 61 105 21 51 44 103 52 116 14 21 13 22 -10 22 -18 0
-23 -4 -20 -18 3 -9 -4 -37 -14 -61 l-20 -44 -21 41 c-24 47 -26 68 -8 75 6 3
-16 5 -50 5 -37 0 -67 -6 -73 -13z"/>
<path d="M24147 3756 c-7 -16 1 -26 20 -26 7 0 13 9 13 20 0 23 -25 27 -33 6z"/>
<path d="M24145 3630 c-8 -14 3 -30 21 -30 8 0 14 9 14 20 0 21 -24 28 -35 10z"/>
<path d="M21430 2850 l0 -290 2940 0 2940 0 0 290 0 290 -2940 0 -2940 0 0
-290z m5860 0 l0 -270 -2920 0 -2920 0 0 270 0 270 2920 0 2920 0 0 -270z"/>
<path d="M21915 2873 c25 -70 45 -129 45 -130 0 -2 30 -3 68 -2 37 0 60 3 52
6 -23 9 -30 24 -30 66 0 37 0 37 40 37 75 0 109 76 54 119 -22 17 -40 21 -98
20 -53 0 -65 -3 -48 -9 22 -9 23 -13 20 -117 -3 -102 -4 -108 -24 -111 -20 -3
-26 10 -64 122 -23 69 -46 126 -51 126 -5 0 12 -57 36 -127z m205 76 c15 -27
5 -66 -21 -79 -35 -19 -49 -5 -49 50 0 49 1 50 30 50 20 0 33 -7 40 -21z"/>
<path d="M22534 2989 c-10 -17 13 -36 27 -22 12 12 4 33 -11 33 -5 0 -12 -5
-16 -11z"/>
<path d="M23040 2995 c0 -6 18 -65 41 -132 l41 -123 56 1 c31 1 49 3 40 6 -16
4 -18 17 -17 91 l1 87 45 -95 45 -95 14 30 c8 17 30 64 49 105 l34 75 1 -93
c0 -87 -1 -93 -22 -102 -17 -7 -8 -9 37 -8 33 0 52 2 43 5 -16 4 -18 18 -18
118 0 100 2 114 18 118 9 3 -1 5 -22 4 l-39 -2 -43 -94 -42 -94 -35 76 c-20
42 -38 86 -42 97 -5 16 -15 20 -48 19 -36 0 -39 -2 -19 -9 22 -9 23 -13 20
-117 -3 -100 -5 -108 -23 -111 -18 -2 -25 13 -59 115 -34 106 -56 155 -56 128z"/>
<path d="M23904 2989 c-10 -17 13 -36 27 -22 12 12 4 33 -11 33 -5 0 -12 -5
-16 -11z"/>
<path d="M23994 2984 c-10 -8 -13 -13 -6 -9 9 5 12 -20 12 -109 0 -82 -4 -116
-12 -119 -7 -3 7 -5 32 -5 25 0 39 2 33 5 -10 3 -13 39 -13 129 0 131 -4 142
-46 108z"/>
<path d="M21518 2980 c21 -9 22 -15 22 -115 0 -100 -1 -106 -22 -115 -17 -6 1
-9 62 -9 129 -1 170 31 170 134 0 35 -6 52 -29 77 -29 33 -30 33 -128 35 -70
2 -92 0 -75 -7z m166 -41 c49 -58 28 -157 -39 -179 -61 -20 -65 -13 -65 105
l0 105 39 0 c32 0 44 -6 65 -31z"/>
<path d="M23678 2980 c21 -9 22 -15 22 -115 0 -100 -1 -106 -22 -115 -18 -7
-9 -9 37 -9 33 1 53 3 45 6 -23 9 -30 24 -30 71 0 41 1 42 35 42 22 0 38 -6
44 -17 8 -14 10 -8 10 27 0 35 -2 41 -10 28 -6 -12 -22 -18 -44 -18 l-35 0 0
50 0 50 40 0 c27 0 47 -7 60 -20 l20 -20 0 25 0 25 -97 -1 c-69 0 -91 -3 -75
-9z"/>
<path d="M22962 2928 c-13 -15 -19 -28 -13 -28 6 0 11 -33 13 -77 3 -70 5 -78
24 -81 11 -2 27 4 34 13 12 15 11 16 -6 13 -17 -3 -19 4 -22 64 -3 62 -1 67
20 71 22 4 22 4 1 6 -15 1 -23 9 -25 24 l-3 24 -23 -29z"/>
<path d="M21805 2900 c-8 -14 3 -30 21 -30 8 0 14 9 14 20 0 21 -24 28 -35 10z"/>
<path d="M22204 2894 c-10 -8 -13 -13 -6 -9 9 5 12 -11 12 -64 0 -46 -4 -71
-12 -74 -7 -3 10 -5 37 -5 28 0 42 2 32 5 -15 4 -17 14 -15 66 3 58 5 62 27
62 13 0 26 6 28 12 7 18 -25 27 -42 13 -10 -9 -15 -9 -15 -1 0 16 -23 14 -46
-5z"/>
<path d="M22346 2879 c-30 -35 -32 -58 -11 -98 38 -74 145 -41 145 44 0 79
-85 113 -134 54z m70 13 c34 -22 45 -99 18 -126 -20 -21 -30 -20 -54 4 -27 27
-28 104 -2 119 21 12 24 13 38 3z"/>
<path d="M22524 2895 c-11 -8 -14 -15 -6 -15 9 0 12 -27 12 -101 l0 -101 -30
7 c-23 5 -30 3 -30 -9 0 -24 53 -20 76 5 15 17 19 40 22 125 5 111 -1 122 -44
89z"/>
<path d="M22652 2903 c-7 -3 -19 -18 -28 -35 -42 -81 45 -169 106 -108 25 25
27 49 2 27 -25 -22 -48 -21 -72 3 -36 36 -26 50 35 50 47 0 55 3 55 18 0 38
-54 63 -98 45z m42 -9 c9 -3 16 -15 16 -25 0 -15 -7 -19 -35 -19 -38 0 -44 10
-19 34 18 18 17 18 38 10z"/>
<path d="M22805 2885 c-67 -66 7 -183 82 -130 11 8 23 24 26 36 l6 21 -20 -21
c-38 -41 -89 -16 -89 44 0 32 21 65 40 65 5 0 14 -9 20 -20 12 -22 40 -27 40
-7 0 42 -68 50 -105 12z"/>
<path d="M23493 2877 c12 -18 33 -56 46 -84 23 -49 23 -53 7 -77 -10 -17 -24
-25 -39 -23 -28 3 -30 -27 -1 -31 29 -4 45 20 89 128 21 52 42 101 48 108 7 9
3 12 -16 12 -19 0 -24 -4 -20 -18 2 -9 -4 -37 -14 -61 l-19 -43 -24 52 c-20
44 -22 53 -10 61 11 6 2 9 -27 9 l-42 0 22 -33z"/>
<path d="M23894 2894 c-10 -8 -13 -13 -6 -9 9 5 12 -11 12 -64 0 -46 -4 -71
-12 -74 -7 -3 6 -6 30 -6 40 -1 42 0 28 15 -12 11 -16 35 -16 85 0 38 -4 69
-8 69 -5 0 -17 -7 -28 -16z"/>
<path d="M24112 2887 c-45 -48 -16 -147 44 -147 27 0 60 25 67 51 l6 21 -20
-21 c-20 -21 -45 -27 -65 -13 -11 7 -34 45 -34 56 0 3 27 6 60 6 33 0 60 4 60
9 0 4 -9 20 -21 35 -26 33 -68 34 -97 3z m62 -3 c25 -25 19 -34 -25 -34 -40 0
-42 4 -16 38 13 16 22 15 41 -4z"/>
<path d="M24266 2889 c-19 -28 -8 -50 39 -78 24 -14 35 -27 33 -38 -6 -30 -40
-28 -65 3 l-23 29 0 -32 c0 -32 1 -33 43 -33 48 0 81 25 75 57 -2 10 -22 28
-46 41 -41 23 -53 44 -32 57 15 9 50 -4 50 -20 0 -8 5 -17 10 -20 6 -4 10 6
10 22 0 27 -3 29 -39 31 -31 2 -43 -2 -55 -19z"/>
<path d="M21805 2770 c-8 -14 3 -30 21 -30 8 0 14 9 14 20 0 21 -24 28 -35 10z"/>
</g>
</svg>
